<svg version="1.1" xmlns="http://www.w3.org/2000/svg" width="1024" height="1024">
<path d="M0 0 C337.92 0 675.84 0 1024 0 C1024 337.92 1024 675.84 1024 1024 C686.08 1024 348.16 1024 0 1024 C0 686.08 0 348.16 0 0 Z " fill="#FEFEFE" transform="translate(0,0)"/>
<path d="M0 0 C23.531 17.47 23.531 17.47 25.141 28.32 C24.75 30.688 24.75 30.688 23.668 32.457 C20.854 34.262 18.373 34.211 15.062 34.375 C13.883 34.441 12.704 34.506 11.488 34.574 C10.133 34.63 10.133 34.63 8.75 34.688 C8.927 35.246 9.103 35.805 9.285 36.381 C10.094 38.959 10.891 41.542 11.688 44.125 C11.965 45.003 12.243 45.882 12.529 46.787 C14.268 52.465 15.197 57.779 15.75 63.688 C16.08 64.347 16.41 65.007 16.75 65.688 C17.701 82.039 15.384 97.135 5.062 110.5 C-1.776 117.801 -10.878 121.743 -20.25 124.688 C-21.24 125.018 -22.23 125.347 -23.25 125.688 C-32.427 126.354 -41.799 125.554 -50.168 121.543 C-54.291 119.849 -58.65 118.822 -62.945 117.652 C-65.809 116.816 -68.507 115.852 -71.25 114.688 C-71.25 115.347 -71.25 116.007 -71.25 116.688 C-70.569 116.811 -69.889 116.935 -69.188 117.062 C-62.585 118.467 -56.764 120.629 -50.75 123.625 C-50.068 123.961 -49.386 124.297 -48.684 124.643 C-44.994 126.539 -41.821 128.335 -39.25 131.688 C-38.789 133.906 -38.789 133.906 -38.875 136.188 C-38.894 137.317 -38.894 137.317 -38.914 138.469 C-39.293 140.975 -39.81 142.596 -41.25 144.688 C-42.57 145.018 -43.89 145.347 -45.25 145.688 C-42.94 148.327 -40.63 150.967 -38.25 153.688 C-38.58 152.368 -38.91 151.048 -39.25 149.688 C-39.319 146.046 -38.956 143.656 -36.785 140.68 C-33.229 137.087 -30.157 135.178 -25.062 134.812 C-5.375 136.366 15.468 157.52 30.678 169.119 C32.966 170.851 35.271 172.562 37.578 174.27 C38.415 174.891 39.252 175.513 40.115 176.154 C41.825 177.423 43.538 178.687 45.254 179.948 C49.42 183.043 53.386 186.196 57.168 189.754 C65.684 197.933 65.684 197.933 76.835 200.384 C79.125 200.254 81.403 200.064 83.688 199.859 C90.031 199.348 94.776 202.177 99.504 206.168 C100.75 207.688 100.75 207.688 100.75 210.688 C96.064 208.995 96.064 208.995 94.16 207.129 C90.403 204.882 86.726 205.332 82.438 205.438 C81.608 205.443 80.778 205.448 79.924 205.453 C76.11 205.501 72.669 205.703 68.906 206.422 C65.75 206.688 65.75 206.688 63.582 205.344 C62.916 204.632 62.249 203.921 61.562 203.188 C56.67 198.392 51.445 194.321 45.938 190.25 C44.173 188.941 42.409 187.633 40.645 186.324 C39.801 185.7 38.957 185.075 38.088 184.431 C35.069 182.18 32.096 179.877 29.125 177.562 C4.718 156.323 4.718 156.323 -23.562 143.188 C-26.548 143.743 -28.036 144.644 -30.25 146.688 C-29.471 159.678 -24.88 169.139 -15.25 177.688 C-14.038 178.999 -12.849 180.332 -11.688 181.688 C-11.133 182.331 -10.579 182.974 -10.008 183.637 C-9.428 184.313 -8.848 184.99 -8.25 185.688 C-6.859 187.296 -5.463 188.9 -4.062 190.5 C-3.43 191.228 -2.797 191.957 -2.145 192.707 C1.917 196.952 5.299 198.271 11.066 199.117 C11.787 199.233 12.507 199.348 13.249 199.467 C15.602 199.842 17.957 200.202 20.312 200.562 C23.595 201.081 26.875 201.607 30.156 202.133 C31.385 202.328 31.385 202.328 32.639 202.527 C39.893 203.688 47.1 205.041 54.312 206.438 C62.859 208.08 71.34 209.383 80.02 210.056 C83.677 210.355 86.613 210.697 89.75 212.688 C89.75 213.678 89.75 214.668 89.75 215.688 C90.616 215.357 91.483 215.028 92.375 214.688 C95.707 213.7 98.302 213.523 101.75 213.688 C101.75 213.028 101.75 212.368 101.75 211.688 C105.681 208.281 109.402 208.364 114.348 208.387 C116.881 208.704 118.555 209.415 120.75 210.688 C120.75 211.347 120.75 212.007 120.75 212.688 C127.68 209.717 134.61 206.748 141.75 203.688 C140.116 200.419 139.24 198.931 136.785 196.511 C136.188 195.917 135.59 195.324 134.975 194.712 C134.332 194.082 133.69 193.453 133.027 192.805 C132.367 192.149 131.706 191.494 131.025 190.818 C128.917 188.728 126.803 186.645 124.688 184.562 C122.569 182.472 120.453 180.38 118.339 178.285 C117.024 176.983 115.706 175.683 114.386 174.385 C113.792 173.798 113.198 173.21 112.586 172.605 C112.061 172.089 111.536 171.572 110.996 171.04 C109.75 169.688 109.75 169.688 108.75 167.688 C106.041 168.723 103.533 169.809 100.996 171.227 C95.374 173.757 89.786 173.514 83.75 172.688 C80.176 171.229 77.566 169.306 74.75 166.688 C74.176 166.158 73.603 165.628 73.012 165.082 C67.832 159.671 64.677 152.683 64.188 145.188 C64.596 137.732 68.331 131.634 73.75 126.688 C78.773 122.712 82.861 121.141 89.285 121.312 C97.197 122.516 103.94 127.457 108.75 133.688 C111.801 138.738 113.894 143.473 113.875 149.438 C113.878 150.257 113.88 151.077 113.883 151.922 C113.75 154.688 113.75 154.688 112.976 158.048 C112.385 161.696 112.385 161.696 114.453 164.283 C115.294 165.075 116.134 165.867 117 166.684 C117.919 167.572 118.838 168.461 119.785 169.377 C120.773 170.294 121.761 171.21 122.75 172.125 C124.648 173.934 126.544 175.745 128.438 177.559 C129.351 178.427 130.265 179.296 131.207 180.191 C134.059 182.99 136.68 185.918 139.266 188.961 C141.294 191.32 143.472 193.506 145.688 195.688 C146.46 196.451 147.232 197.214 148.027 198 C148.596 198.557 149.164 199.114 149.75 199.688 C155.134 198.01 160.259 195.84 165.438 193.625 C167.128 192.904 168.82 192.184 170.512 191.465 C171.625 190.989 171.625 190.989 172.76 190.504 C176.698 188.889 179.7 188.579 183.938 188.625 C185.024 188.634 186.111 188.643 187.23 188.652 C188.478 188.67 188.478 188.67 189.75 188.688 C187.801 184.87 185.839 181.059 183.875 177.25 C183.319 176.161 182.764 175.073 182.191 173.951 C181.656 172.917 181.121 171.882 180.57 170.816 C180.078 169.858 179.586 168.9 179.079 167.912 C177.945 165.561 177.945 165.561 175.75 164.688 C175.461 165.471 175.173 166.255 174.875 167.062 C173.75 169.687 173.75 169.687 171.75 171.688 C168.527 171.603 167.109 171.024 164.75 168.812 C157.796 157.947 155.393 147.374 155.375 134.625 C155.351 133.683 155.326 132.742 155.301 131.771 C155.275 125.535 156.22 120.9 159.75 115.688 C160.41 115.028 161.07 114.368 161.75 113.688 C162.284 111.459 162.284 111.459 162.625 108.938 C163.493 104.206 164.695 101.39 167.75 97.688 C171.595 95.124 173.172 95.097 177.75 95.688 C184.459 99.218 189.861 104.318 195.125 109.688 C195.864 110.436 196.603 111.184 197.364 111.955 C203.725 118.49 209.364 125.343 214.75 132.688 C215.784 134.065 216.817 135.443 217.852 136.82 C233.814 158.289 246.694 181.412 258 205.625 C258.575 206.822 258.575 206.822 259.161 208.043 C261.498 213.195 262.136 217.033 261.75 222.688 C232.487 240.377 232.487 240.377 220.938 239.25 C215.482 237.847 213.623 235.127 210.836 230.531 C205.75 221.53 205.75 221.53 205.75 218.688 C204.919 219.337 204.919 219.337 204.07 220 C203.346 220.557 202.621 221.114 201.875 221.688 C201.156 222.244 200.436 222.801 199.695 223.375 C197.75 224.688 197.75 224.688 195.75 224.688 C195.75 225.347 195.75 226.007 195.75 226.688 C192.75 228.688 192.75 228.688 188.75 228.688 C188.629 225.774 188.629 224.33 189.75 221.688 C192.835 218.665 196.214 216.158 199.75 213.688 C199.204 209.407 198.197 206.126 196.188 202.312 C195.732 201.439 195.277 200.565 194.809 199.664 C194.459 199.012 194.11 198.36 193.75 197.688 C180.97 196.691 172.076 198.712 160.75 204.688 C160.75 205.347 160.75 206.007 160.75 206.688 C162.184 207.985 162.184 207.985 164 209.312 C167.864 212.502 170.124 215.949 171.75 220.688 C171.75 221.678 171.75 222.668 171.75 223.688 C165.652 223.908 160.534 223.699 154.75 221.688 C156.75 218.688 156.75 218.688 159.375 218 C160.159 217.897 160.942 217.794 161.75 217.688 C157.334 212.836 157.334 212.836 151.75 209.688 C145.179 211.123 138.846 214.233 132.688 216.875 C131.822 217.243 130.956 217.611 130.064 217.99 C127.958 218.886 125.854 219.785 123.75 220.688 C123.552 222.753 123.552 222.753 124.938 224.301 C127.177 226.4 128.86 227.589 131.75 228.688 C136.598 228.328 141.145 227.22 145.861 226.092 C151.15 224.96 155.94 225.107 161.062 226.75 C164.595 229.297 166.402 232.028 168.75 235.688 C169.458 235.367 170.165 235.046 170.895 234.715 C177.303 232.409 184.485 232.723 190.75 235.375 C201.799 241.669 209.713 253.951 217.339 263.87 C219.79 267.028 222.305 270.136 224.812 273.25 C229.707 279.351 234.516 285.513 239.257 291.733 C241.002 294.017 242.755 296.293 244.508 298.57 C252.853 309.434 260.997 320.394 268.75 331.688 C269.516 332.795 269.516 332.795 270.297 333.925 C292.637 366.337 292.637 366.337 290.75 385.688 C288.79 392.927 285.523 399.259 281.75 405.688 C281.75 406.678 281.75 407.668 281.75 408.688 C282.612 408.617 283.475 408.547 284.363 408.475 C294.014 407.755 303.616 407.501 313.293 407.502 C315.748 407.5 318.202 407.482 320.656 407.463 C344.949 407.375 367.804 412.244 389.75 422.688 C390.428 423.006 391.106 423.324 391.804 423.652 C407.242 431.018 425.999 443.292 432.75 459.688 C432.5 463.125 432.5 463.125 431.75 465.688 C428.639 466.725 426.255 466.888 422.988 467.004 C421.87 467.046 420.752 467.088 419.6 467.131 C418.432 467.17 417.265 467.209 416.062 467.25 C414.884 467.293 413.705 467.336 412.49 467.381 C409.577 467.487 406.664 467.589 403.75 467.688 C404.353 468.155 404.957 468.623 405.578 469.104 C406.377 469.725 407.177 470.345 408 470.984 C408.789 471.596 409.578 472.208 410.391 472.839 C432.073 489.827 447.238 516.25 450.75 543.688 C452.847 577.089 445.124 606.561 422.979 632.171 C414.467 641.706 404.718 649.38 393.5 655.5 C392.895 655.837 392.289 656.173 391.666 656.52 C383.8 660.59 375.157 662.989 366.75 665.688 C367.342 665.698 367.933 665.708 368.542 665.719 C418.53 666.594 418.53 666.594 434.812 667.125 C435.805 667.152 436.797 667.179 437.82 667.207 C444.268 667.443 450.433 668.382 456.75 669.688 C456.75 670.347 456.75 671.008 456.75 671.688 C450.829 673.36 445.35 674.088 439.212 674.304 C438.266 674.342 437.32 674.379 436.346 674.418 C423.437 674.876 410.519 674.831 397.604 674.822 C393.712 674.821 389.821 674.825 385.929 674.828 C379.13 674.833 372.33 674.835 365.531 674.834 C355.419 674.832 345.307 674.836 335.196 674.841 C316.08 674.851 296.965 674.854 277.85 674.855 C263.084 674.855 248.317 674.857 233.551 674.86 C229.293 674.861 225.034 674.862 220.775 674.863 C219.187 674.863 219.187 674.863 217.566 674.864 C187.806 674.87 158.045 674.874 128.285 674.873 C127.164 674.873 126.043 674.873 124.889 674.873 C119.209 674.873 113.53 674.873 107.85 674.873 C106.158 674.873 106.158 674.873 104.432 674.873 C102.151 674.873 99.871 674.873 97.59 674.873 C62.106 674.872 26.623 674.88 -8.86 674.893 C-48.774 674.909 -88.688 674.917 -128.601 674.916 C-132.862 674.916 -137.122 674.916 -141.382 674.916 C-142.431 674.916 -143.48 674.916 -144.561 674.916 C-161.397 674.916 -178.234 674.922 -195.07 674.931 C-212.006 674.94 -228.941 674.941 -245.876 674.934 C-255.92 674.93 -265.963 674.932 -276.007 674.942 C-282.735 674.948 -289.464 674.947 -296.192 674.939 C-300.013 674.936 -303.833 674.935 -307.654 674.943 C-321.979 674.972 -336.264 674.809 -350.564 673.86 C-352.274 673.756 -352.274 673.756 -354.018 673.65 C-355.061 673.571 -356.103 673.491 -357.177 673.409 C-358.088 673.343 -359 673.276 -359.939 673.208 C-362.592 672.611 -363.558 671.769 -365.25 669.688 C-360.746 667.436 -354.918 667.975 -349.938 667.664 C-349.244 667.62 -348.55 667.576 -347.835 667.531 C-328.304 666.324 -308.748 666.24 -289.186 666.087 C-284.21 666.046 -279.234 665.995 -274.258 665.945 C-264.589 665.85 -254.919 665.765 -245.25 665.688 C-246.796 665.179 -246.796 665.179 -248.374 664.66 C-249.74 664.209 -251.105 663.757 -252.47 663.305 C-253.487 662.971 -253.487 662.971 -254.525 662.631 C-259.298 661.049 -263.849 659.307 -268.312 657 C-268.971 656.662 -269.63 656.325 -270.308 655.977 C-294.638 643.131 -312.079 623.597 -323.25 598.688 C-323.993 597.034 -323.993 597.034 -324.75 595.348 C-330.223 582.17 -331.516 569.628 -331.625 555.5 C-331.639 554.337 -331.653 553.173 -331.667 551.974 C-331.623 543.85 -330.376 536.515 -328.25 528.688 C-327.96 527.587 -327.669 526.487 -327.37 525.354 C-324.885 516.184 -320.657 508.047 -316.25 499.688 C-315.92 499.028 -315.59 498.367 -315.25 497.688 C-315.91 497.688 -316.57 497.688 -317.25 497.688 C-317.495 498.248 -317.74 498.809 -317.992 499.387 C-325.566 513.24 -340.38 522.66 -355.074 527.227 C-358.775 528.01 -362.493 528.124 -366.25 527.688 C-367.25 526.688 -367.25 526.688 -367.562 523.75 C-367.516 520.513 -366.75 518.074 -365.508 515.094 C-365.144 514.215 -364.781 513.337 -364.406 512.432 C-364.025 511.526 -363.643 510.621 -363.25 509.688 C-362.89 508.819 -362.529 507.95 -362.158 507.054 C-361.055 504.406 -359.936 501.765 -358.812 499.125 C-358.259 497.803 -358.259 497.803 -357.693 496.455 C-355.221 490.648 -352.428 485.141 -349.25 479.688 C-349.91 479.688 -350.57 479.688 -351.25 479.688 C-354.768 472.325 -354.584 463.053 -352.223 455.324 C-348.818 448.053 -343.882 442.345 -338.25 436.688 C-338.769 436.48 -339.289 436.272 -339.824 436.059 C-345.129 433.715 -349.082 431.253 -351.25 425.688 C-352.503 417.828 -351.339 410.521 -347.25 403.688 C-339.288 393.315 -339.288 393.315 -334.25 391.688 C-331.287 391.408 -328.349 391.409 -325.375 391.438 C-324.585 391.43 -323.795 391.422 -322.98 391.414 C-318.284 391.43 -314.713 392.121 -310.25 393.688 C-306.374 394.195 -304.865 394.12 -301.637 391.852 C-300.746 391.014 -299.855 390.176 -298.938 389.312 C-279.996 372.525 -255.548 364.557 -230.438 364.52 C-229.625 364.516 -228.812 364.513 -227.975 364.509 C-226.264 364.504 -224.553 364.502 -222.842 364.502 C-220.284 364.5 -217.726 364.482 -215.168 364.463 C-204.385 364.427 -193.924 365.162 -183.25 366.688 C-200.901 363.061 -218.752 361.176 -236.678 359.461 C-247.228 358.432 -257.738 357.046 -268.25 355.688 C-267.421 356.618 -266.592 357.549 -265.738 358.508 C-264.325 360.094 -264.325 360.094 -263.25 361.688 C-263.438 364.562 -263.438 364.562 -264.25 366.688 C-266.438 367.555 -266.438 367.555 -269.25 367.688 C-271.132 365.764 -272.649 363.946 -274.25 361.812 C-277.132 358.304 -279.108 356.003 -283.574 354.77 C-285.789 354.674 -288.007 354.642 -290.223 354.676 C-294.975 354.694 -299.225 353.425 -302.898 350.273 C-305.861 346.798 -305.332 343.02 -305.25 338.688 C-306.17 338.699 -307.091 338.711 -308.039 338.723 C-314.64 338.77 -321.219 338.727 -327.812 338.375 C-328.907 338.317 -330.001 338.259 -331.129 338.199 C-337.201 337.204 -341.334 334.344 -345.25 329.688 C-348.795 323.344 -348.671 317.528 -348.613 310.371 C-348.615 309.175 -348.616 307.979 -348.617 306.747 C-348.616 302.873 -348.59 298.999 -348.562 295.125 C-348.557 293.789 -348.552 292.454 -348.548 291.118 C-348.491 274.782 -348.21 258.562 -346.809 242.281 C-346.282 235.93 -346.047 229.588 -345.848 223.219 C-345.778 221.163 -345.708 219.106 -345.638 217.05 C-345.535 213.992 -345.439 210.934 -345.368 207.875 C-345.301 205.034 -345.206 202.195 -345.105 199.355 C-345.094 198.513 -345.082 197.671 -345.07 196.802 C-344.815 190.625 -343.207 185.531 -339.25 180.688 C-334.746 176.956 -331.201 176.116 -325.5 176.233 C-324.373 176.233 -324.373 176.233 -323.222 176.232 C-320.754 176.234 -318.288 176.265 -315.82 176.297 C-314.103 176.304 -312.385 176.31 -310.667 176.314 C-306.159 176.329 -301.652 176.369 -297.144 176.413 C-292.539 176.454 -287.933 176.472 -283.328 176.492 C-274.302 176.535 -265.276 176.603 -256.25 176.688 C-256.25 177.347 -256.25 178.007 -256.25 178.688 C-255.541 178.683 -254.832 178.679 -254.102 178.674 C-247.394 178.634 -240.686 178.603 -233.978 178.584 C-230.53 178.573 -227.082 178.559 -223.634 178.537 C-219.662 178.511 -215.69 178.501 -211.719 178.492 C-210.491 178.482 -209.264 178.472 -207.999 178.461 C-199.032 178.46 -191.491 178.793 -184.25 184.688 C-180.217 189.47 -180.835 194.727 -180.887 200.66 C-180.885 201.756 -180.884 202.851 -180.883 203.979 C-180.885 207.57 -180.91 211.16 -180.938 214.75 C-180.947 217.231 -180.956 219.712 -180.965 222.193 C-181.111 248.358 -181.82 274.622 -184.25 300.688 C-183.59 300.358 -182.93 300.027 -182.25 299.688 C-162.288 297.871 -143.99 302.381 -125.25 308.688 C-125.411 307.836 -125.572 306.984 -125.737 306.107 C-126.643 300.064 -126.493 293.975 -126.5 287.875 C-126.501 287.166 -126.503 286.456 -126.504 285.725 C-126.499 272.203 -125.247 259.064 -123.25 245.688 C-122.994 243.875 -122.74 242.063 -122.488 240.25 C-122.007 236.811 -121.513 233.373 -121.008 229.938 C-120.454 226.149 -119.933 222.358 -119.43 218.562 C-119.295 217.55 -119.16 216.538 -119.021 215.495 C-118.762 213.536 -118.506 211.576 -118.252 209.616 C-118.135 208.739 -118.019 207.861 -117.898 206.957 C-117.797 206.179 -117.696 205.402 -117.591 204.601 C-117.25 202.688 -117.25 202.688 -116.25 200.688 C-115.974 198.617 -115.806 196.546 -115.629 194.465 C-115.201 191.326 -114.525 188.292 -113.819 185.206 C-113.228 182.589 -112.679 179.967 -112.137 177.34 C-102.773 132.404 -102.773 132.404 -92.25 124.688 C-81.663 123.489 -70.853 127.103 -61.293 131.348 C-56.028 133.666 -50.629 135.649 -45.25 137.688 C-49.573 129.594 -57.407 127.855 -65.758 125.299 C-69.912 124.06 -74.078 122.865 -78.25 121.688 C-79.621 121.296 -80.992 120.904 -82.363 120.512 C-83.316 120.24 -84.269 119.968 -85.25 119.688 C-84.92 118.038 -84.59 116.387 -84.25 114.688 C-85.324 114.757 -86.398 114.827 -87.504 114.898 C-100.436 115.506 -100.436 115.506 -104.188 112.688 C-112.758 103.152 -118.148 89.645 -122.25 77.688 C-122.664 76.482 -123.078 75.277 -123.504 74.035 C-127.911 59.156 -129.499 39.826 -122.25 25.688 C-121.814 24.837 -121.379 23.986 -120.93 23.109 C-110.288 4.152 -93.759 -7.747 -73.055 -13.621 C-47.304 -19.969 -21.756 -14.458 0 0 Z " fill="#070708" transform="translate(467.25,203.3125)"/>
<path d="M0 0 C9.503 5.61 15.769 14.636 22.396 23.21 C24.878 26.398 27.416 29.54 29.949 32.688 C34.529 38.394 39.03 44.155 43.473 49.969 C45.054 52.037 46.643 54.099 48.238 56.156 C55.626 65.686 62.792 75.375 69.887 85.125 C70.421 85.858 70.956 86.591 71.506 87.346 C77.257 95.262 82.75 103.295 87.887 111.625 C88.332 112.342 88.777 113.06 89.235 113.799 C95.694 124.46 99.053 133.423 96.227 146.082 C93.673 153.809 89.239 160.287 84.637 166.929 C71.125 186.456 60.214 207.406 49.372 228.486 C23.855 278.094 23.855 278.094 6.887 299.125 C5.854 300.459 5.854 300.459 4.801 301.82 C-9.445 319.871 -26.092 335.59 -49.749 338.737 C-59.054 339.689 -68.472 339.388 -77.812 339.355 C-80.133 339.354 -82.454 339.354 -84.775 339.354 C-89.642 339.353 -94.51 339.344 -99.377 339.331 C-105.477 339.314 -111.576 339.31 -117.676 339.311 C-140.853 339.31 -164.024 339.207 -187.195 338.676 C-188.065 338.656 -188.934 338.637 -189.83 338.617 C-195.259 338.493 -200.686 338.334 -206.113 338.125 C-206.838 338.098 -207.563 338.071 -208.309 338.043 C-210.386 337.959 -212.462 337.857 -214.538 337.747 C-216.298 337.659 -216.298 337.659 -218.094 337.569 C-221.95 337.002 -224.149 335.824 -226.75 332.961 C-227.2 332.355 -227.65 331.749 -228.113 331.125 C-228.615 330.519 -229.116 329.913 -229.633 329.289 C-233.076 324.337 -233.306 320.072 -233.051 314.188 C-232.768 306.446 -234.203 302.11 -239.113 296.125 C-239.749 295.341 -239.749 295.341 -240.398 294.541 C-246.521 287.044 -253.068 279.918 -259.641 272.816 C-261.796 270.471 -263.904 268.096 -265.988 265.688 C-270.758 259.815 -270.758 259.815 -277.113 256.125 C-276.825 254.876 -276.536 253.627 -276.238 252.34 C-272.343 234.504 -270.862 216.964 -276.238 199.305 C-277.041 196.387 -277.294 194.125 -277.113 191.125 C-269.959 190.597 -263.387 192.513 -256.488 194.25 C-255.293 194.534 -254.098 194.817 -252.867 195.109 C-244.421 197.214 -236.902 200.271 -229.113 204.125 C-227.789 204.731 -226.462 205.332 -225.133 205.926 C-216.753 209.876 -206.736 214.994 -203.113 224.125 C-202.615 227.945 -202.968 229.829 -204.676 233.312 C-209.176 238.505 -214.538 239.386 -221.113 240.125 C-224.448 240.285 -227.775 240.315 -231.113 240.312 C-232.039 240.312 -232.964 240.312 -233.918 240.312 C-240.624 240.257 -247.019 239.67 -253.648 238.637 C-259.112 237.83 -264.604 237.478 -270.113 237.125 C-270.817 246.298 -270.817 246.298 -267.523 254.594 C-262.973 259.535 -258.22 262.864 -251.445 263.434 C-234.559 264.096 -221.487 259.215 -208.684 247.996 C-202.42 242.092 -197.058 236.02 -196.426 227.125 C-196.843 220.217 -200.417 215.816 -205.176 211.066 C-211.795 205.33 -219.385 201.667 -227.262 197.996 C-228.839 197.254 -230.398 196.475 -231.953 195.688 C-244.887 189.31 -263.006 183.759 -277.426 184.312 C-279.82 184.129 -279.82 184.129 -282.113 183.125 C-284.741 179.889 -286.768 176.5 -288.848 172.898 C-301.072 151.871 -325.497 139.771 -347.761 132.636 C-349.175 132.182 -349.175 132.182 -350.617 131.719 C-351.461 131.458 -352.305 131.197 -353.174 130.928 C-355.113 130.125 -355.113 130.125 -356.113 128.125 C-353.342 128.434 -350.571 128.747 -347.801 129.062 C-346.622 129.193 -346.622 129.193 -345.42 129.326 C-344.284 129.457 -344.284 129.457 -343.125 129.59 C-342.08 129.708 -342.08 129.708 -341.014 129.828 C-339.113 130.125 -339.113 130.125 -336.113 131.125 C-334.705 131.288 -333.291 131.407 -331.876 131.498 C-331.025 131.555 -330.173 131.612 -329.296 131.67 C-328.377 131.727 -327.458 131.785 -326.512 131.844 C-325.561 131.907 -324.61 131.969 -323.63 132.034 C-320.583 132.235 -317.536 132.43 -314.488 132.625 C-311.462 132.82 -308.437 133.017 -305.411 133.216 C-303.529 133.339 -301.647 133.461 -299.764 133.58 C-294.878 133.899 -290.026 134.331 -285.163 134.896 C-279.79 135.496 -274.382 135.769 -268.988 136.125 C-267.791 136.207 -266.593 136.29 -265.359 136.375 C-261.278 136.647 -257.197 136.893 -253.113 137.125 C-252.334 137.17 -251.556 137.215 -250.753 137.262 C-233.337 138.241 -215.922 138.345 -198.483 138.365 C-194.439 138.371 -190.395 138.395 -186.35 138.423 C-183.194 138.442 -180.038 138.447 -176.882 138.449 C-175.389 138.452 -173.897 138.46 -172.405 138.473 C-159.727 138.73 -159.727 138.73 -148.676 133.125 C-146.923 131.111 -146.923 131.111 -146.113 128.125 C-144.463 128.455 -142.813 128.785 -141.113 129.125 C-141.458 129.893 -141.458 129.893 -141.809 130.677 C-154.306 158.885 -164.253 188.371 -171.428 218.367 C-172.267 221.743 -173.23 225.074 -174.212 228.411 C-177.09 238.195 -178.736 248.028 -180.113 258.125 C-183.413 258.125 -186.713 258.125 -190.113 258.125 C-189.726 253.735 -188.791 249.992 -187.266 245.852 C-182.308 232.322 -180.519 221.063 -181.012 206.699 C-181.571 189.175 -173.122 173.248 -162.312 159.914 C-161.021 157.987 -160.538 156.391 -160.113 154.125 C-168.342 156.369 -172.694 163.535 -176.738 170.5 C-182.893 181.532 -186.511 193.473 -187.113 206.125 C-187.773 206.125 -188.433 206.125 -189.113 206.125 C-189.711 205.3 -190.31 204.475 -190.926 203.625 C-198.186 194.655 -210.848 190.187 -221.266 185.893 C-223.104 185.129 -224.927 184.33 -226.75 183.531 C-234.131 180.445 -241.106 178.672 -249.113 179.125 C-249.113 179.785 -249.113 180.445 -249.113 181.125 C-243.667 183.2 -238.27 185.142 -232.613 186.562 C-226.772 188.1 -221.531 190.487 -216.113 193.125 C-215.291 193.494 -214.468 193.862 -213.621 194.242 C-202.077 199.59 -192.852 206.649 -187.113 218.125 C-186.472 223.003 -186.896 227.113 -188.879 231.617 C-197.751 252.9 -201.798 275.33 -204.113 298.125 C-210.053 298.455 -215.993 298.785 -222.113 299.125 C-221.783 300.115 -221.453 301.105 -221.113 302.125 C-209.871 304.654 -198.567 304.565 -187.102 304.727 C-184.9 304.763 -182.699 304.8 -180.497 304.838 C-157.227 305.214 -133.953 305.41 -110.68 305.466 C-104.27 305.481 -97.86 305.507 -91.45 305.557 C-85.096 305.606 -78.743 305.631 -72.389 305.638 C-70.002 305.645 -67.614 305.66 -65.226 305.684 C-61.934 305.716 -58.644 305.716 -55.352 305.708 C-53.898 305.733 -53.898 305.733 -52.415 305.758 C-47.838 305.716 -45.798 305.659 -42.094 302.77 C-27.007 282.624 -17.336 256.46 -7.613 233.375 C-7.286 232.601 -6.959 231.826 -6.622 231.029 C-2.068 220.213 2.115 209.289 6.11 198.256 C7.871 193.426 9.691 188.619 11.535 183.82 C20.413 160.457 25.338 143.951 14.75 120.27 C8.75 107.224 1.89 94.652 -5.113 82.125 C-5.687 81.098 -6.26 80.07 -6.851 79.012 C-11.432 70.805 -16.024 62.604 -20.641 54.416 C-22.01 51.988 -23.374 49.556 -24.738 47.125 C-25.128 46.438 -25.517 45.752 -25.918 45.044 C-34.155 30.327 -34.155 30.327 -33.113 22.125 C-30.333 13.047 -22.164 4.41 -13.926 -0.062 C-9.193 -1.43 -4.646 -1.923 0 0 Z " fill="#FEFEFE" transform="translate(654.11328125,444.875)"/>
<path d="M0 0 C0.619 0.66 1.238 1.32 1.875 2 C6.228 4.786 9.96 4.5 15 4 C16.339 3.69 17.673 3.358 19 3 C22.446 2.47 24.873 2.273 27.879 4.211 C30.021 6.054 32.01 7.993 34 10 C34.82 10.795 35.64 11.591 36.484 12.41 C40.941 16.779 45.169 21.263 49.223 26.004 C51.877 28.985 54.73 31.753 57.594 34.531 C60.207 37.212 62.642 40.01 65.095 42.837 C68.332 46.513 71.698 50.066 75.062 53.625 C75.744 54.349 76.425 55.074 77.127 55.82 C81.02 59.949 84.965 64.01 89 68 C87.981 70.194 87.024 71.972 85.438 73.812 C83.491 76.775 83.335 79.515 83 83 C83.681 82.299 84.361 81.597 85.062 80.875 C86.04 79.914 87.019 78.956 88 78 C88.814 77.174 88.814 77.174 89.645 76.332 C92.91 73.229 94.295 72.067 98.938 71.625 C100.453 71.811 100.453 71.811 102 72 C102.33 72.66 102.66 73.32 103 74 C102.223 75.699 102.223 75.699 101.062 77.688 C98.905 81.743 98.622 84.459 99 89 C99.66 89.33 100.32 89.66 101 90 C101.17 89.42 101.34 88.84 101.516 88.242 C103.039 83.332 104.452 78.843 108 75 C111.625 74.5 111.625 74.5 115 75 C115.66 75.66 116.32 76.32 117 77 C116.67 77.99 116.34 78.98 116 80 C115.778 81.892 115.594 83.789 115.438 85.688 C115.354 86.681 115.27 87.675 115.184 88.699 C115.123 89.458 115.062 90.218 115 91 C119.168 88.222 119.487 85.081 120.938 80.434 C121.288 79.631 121.639 78.827 122 78 C125.786 76.738 128.109 77.32 132.047 77.961 C132.736 78.071 133.426 78.181 134.136 78.294 C136.342 78.648 138.546 79.011 140.75 79.375 C142.219 79.613 143.687 79.85 145.156 80.086 C147.877 80.524 150.596 80.966 153.315 81.412 C156.873 81.98 160.432 82.501 164 83 C164.285 90.051 163.769 96.919 162.992 103.918 C162.897 104.794 162.803 105.67 162.705 106.573 C162.473 108.715 162.237 110.858 162 113 C153.002 113.093 144.004 113.164 135.005 113.207 C130.825 113.228 126.646 113.256 122.466 113.302 C118.42 113.346 114.374 113.369 110.328 113.38 C108.797 113.387 107.266 113.401 105.735 113.423 C90.385 113.633 76.441 111.654 64.703 100.895 C60.61 96.904 56.798 92.7 53.078 88.363 C50.282 85.183 47.39 82.095 44.5 79 C40.529 74.744 36.608 70.463 32.805 66.055 C29.947 62.801 27.003 59.624 24.062 56.446 C20.762 52.869 17.597 49.208 14.535 45.426 C12.738 43.756 11.394 43.388 9 43 C9.162 49.483 12.781 52.561 17 57 C18.504 58.663 20.004 60.33 21.5 62 C22.266 62.848 23.031 63.696 23.82 64.57 C25.691 66.656 27.539 68.758 29.375 70.875 C32.785 74.79 36.293 78.612 39.808 82.433 C42.764 85.648 45.704 88.877 48.625 92.125 C49.352 92.928 50.079 93.731 50.828 94.559 C52.302 96.215 53.749 97.896 55.172 99.598 C65.141 111.316 76.848 117.137 92 119 C96.64 119.254 101.264 119.258 105.91 119.23 C107.199 119.23 108.488 119.23 109.815 119.229 C112.522 119.228 115.229 119.219 117.936 119.206 C121.374 119.189 124.811 119.185 128.249 119.186 C131.574 119.185 134.898 119.177 138.223 119.168 C139.441 119.167 140.659 119.166 141.914 119.165 C154.508 119.759 154.508 119.759 166 116 C167.192 113.95 167.192 113.95 168 112 C168.941 112.095 169.882 112.191 170.852 112.289 C172.097 112.4 173.342 112.511 174.625 112.625 C176.47 112.799 176.47 112.799 178.352 112.977 C182.086 113.001 184.528 112.274 188 111 C189.32 111 190.64 111 192 111 C192.11 111.626 192.219 112.253 192.332 112.898 C192.491 113.716 192.649 114.533 192.812 115.375 C193.039 116.593 193.039 116.593 193.27 117.836 C193.875 120.358 193.875 120.358 197 122 C200.09 122.427 203.197 122.324 206.312 122.312 C207.155 122.329 207.997 122.345 208.865 122.361 C214.063 122.365 217.419 121.692 222 119 C222.66 119 223.32 119 224 119 C224 119.66 224 120.32 224 121 C225.459 120.691 226.917 120.378 228.375 120.062 C229.187 119.888 229.999 119.714 230.836 119.535 C233.029 119.077 233.029 119.077 235 118 C237.672 117.866 240.323 117.957 243 118 C242.524 119.48 242.044 120.959 241.562 122.438 C241.162 123.673 241.162 123.673 240.754 124.934 C240 127 240 127 239 128 C236.608 143.995 248.526 159.771 256 173 C256.542 173.963 257.085 174.925 257.644 175.917 C260.184 180.419 262.736 184.914 265.309 189.398 C265.752 190.172 266.195 190.945 266.652 191.741 C268.383 194.641 270.266 197.429 272.199 200.198 C273.254 202.572 272.858 203.583 272 206 C271.665 207 271.665 207 271.323 208.02 C271.067 208.729 270.811 209.438 270.547 210.168 C270.26 210.97 269.973 211.772 269.677 212.598 C269.371 213.453 269.065 214.307 268.75 215.188 C265.734 223.708 263.05 232.273 260.584 240.967 C260.016 242.946 259.426 244.917 258.828 246.887 C255.813 256.852 253.175 266.901 250.591 276.987 C248.931 283.454 247.209 289.893 245.375 296.312 C239.959 315.495 234.816 335.529 234.688 355.562 C234.682 356.264 234.676 356.966 234.671 357.688 C234.726 361.661 235.212 365.373 236.019 369.265 C236.202 370.155 236.385 371.045 236.573 371.962 C236.714 372.634 236.855 373.307 237 374 C183.67 376.104 183.67 376.104 166.788 365.031 C164.874 363.927 163.157 363.436 161 363 C160.412 364.237 160.412 364.237 159.812 365.5 C159.214 366.325 158.616 367.15 158 368 C155.387 368.156 155.387 368.156 153 368 C153.398 367.01 153.797 366.02 154.207 365 C158.218 355.044 158.218 355.044 162 345 C162.344 344.059 162.688 343.118 163.043 342.148 C165.982 334.025 168.74 325.851 171.413 317.636 C172.824 313.345 174.322 309.133 176.035 304.953 C177.965 300.211 179.466 295.418 180.875 290.5 C182.773 284.006 184.792 277.582 187 271.188 C190.315 261.484 192.831 251.597 195.318 241.655 C195.93 239.271 196.584 236.907 197.266 234.543 C200.178 224.264 203.034 211.793 197.812 201.812 C190.749 191.424 180.546 186.414 169.062 182.188 C167.937 181.765 166.812 181.343 165.653 180.908 C162.108 179.587 158.556 178.289 155 177 C153.275 176.373 153.275 176.373 151.514 175.734 C140.12 171.625 128.801 167.68 116.988 164.961 C111.152 163.605 105.427 161.833 99.679 160.146 C93.303 158.302 86.967 156.867 80.422 155.738 C79.623 155.495 78.823 155.251 78 155 C76.91 151.73 76.916 149.414 76.973 145.977 C76.985 144.791 76.997 143.605 77.01 142.383 C77.045 139.885 77.084 137.388 77.127 134.891 C77.143 133.108 77.143 133.108 77.16 131.289 C77.177 130.203 77.194 129.117 77.211 127.999 C76.989 124.846 76.534 122.761 75 120 C73.02 119.01 73.02 119.01 71 118 C71 129.55 71 141.1 71 153 C68.669 152.835 66.339 152.67 63.938 152.5 C48.627 152.069 32.754 157.675 18.282 162.149 C8.791 164.963 0.345 165.496 -9.438 165.25 C-10.863 165.23 -12.288 165.212 -13.713 165.195 C-17.143 165.152 -20.571 165.083 -24 165 C-22.456 173.826 -20.884 182.491 -18 191 C-21.625 187.883 -22.846 185.26 -24.125 180.688 C-24.437 179.598 -24.749 178.509 -25.07 177.387 C-25.377 176.269 -25.684 175.151 -26 174 C-26.545 172.484 -26.545 172.484 -27.102 170.938 C-28.722 165.233 -28.294 159.187 -28.25 153.312 C-28.243 152.014 -28.236 150.715 -28.229 149.377 C-28.117 138.805 -27.444 128.469 -26 118 C-25.866 117.02 -25.732 116.04 -25.593 115.03 C-24.476 107.007 -23.249 99.003 -22 91 C-21.805 89.736 -21.61 88.472 -21.409 87.169 C-17.995 65.1 -14.391 43.128 -8.5 21.562 C-8.228 20.55 -7.955 19.538 -7.674 18.495 C-5.807 11.91 -3.274 6.008 0 0 Z " fill="#FEFEFE" transform="translate(376,337)"/>
<path d="M0 0 C0.33 0 0.66 0 1 0 C0.839 1.25 0.678 2.501 0.512 3.789 C-0.101 9.322 -0.184 14.813 -0.188 20.375 C-0.2 21.359 -0.212 22.342 -0.225 23.355 C-0.227 24.298 -0.228 25.24 -0.23 26.211 C-0.235 27.06 -0.239 27.908 -0.243 28.783 C-0.141 31.288 -0.141 31.288 2 34 C8.762 35.495 15.154 33.233 21.434 30.875 C24 30 24 30 27 30 C27.219 30.837 27.438 31.673 27.664 32.535 C33.543 54.116 42.249 71.093 58 87 C58.615 87.675 59.23 88.351 59.863 89.047 C73.842 104.17 96.097 114.225 116 118 C116 118.33 116 118.66 116 119 C63.355 119.023 10.71 119.041 -41.935 119.051 C-48.195 119.052 -54.455 119.054 -60.715 119.055 C-62.584 119.055 -62.584 119.055 -64.49 119.056 C-84.484 119.06 -104.478 119.068 -124.472 119.077 C-145.091 119.087 -165.711 119.092 -186.331 119.094 C-197.868 119.095 -209.406 119.098 -220.944 119.106 C-273.971 119.139 -326.98 118.942 -380 118 C-377.426 116.653 -375.11 115.713 -372.312 114.812 C-359.151 110.462 -347.295 105.064 -336 97 C-334.662 96.045 -334.662 96.045 -333.297 95.07 C-314.25 80.635 -300.225 58.524 -296 35 C-295.352 34.96 -294.703 34.921 -294.035 34.88 C-271.2 33.999 -271.2 33.999 -250.613 25.148 C-248.826 23.876 -246.979 22.94 -245 22 C-244.602 22.626 -244.203 23.253 -243.793 23.898 C-243.263 24.716 -242.733 25.533 -242.188 26.375 C-241.665 27.187 -241.143 27.999 -240.605 28.836 C-239.016 31.234 -239.016 31.234 -236 33 C-236 33.66 -236 34.32 -236 35 C-236.815 35.105 -237.629 35.211 -238.468 35.32 C-257.478 37.762 -257.478 37.762 -276.438 40.562 C-277.12 40.665 -277.802 40.767 -278.505 40.872 C-283.072 41.628 -286.836 43.06 -291 45 C-291 46.32 -291 47.64 -291 49 C-286.123 49.094 -281.512 48.772 -276.688 48.062 C-275.474 47.888 -274.261 47.714 -273.012 47.535 C-270.089 47.163 -270.089 47.163 -268 46 C-266.688 45.753 -265.367 45.549 -264.044 45.367 C-263.23 45.254 -262.415 45.14 -261.575 45.023 C-260.692 44.903 -259.808 44.784 -258.898 44.66 C-257.027 44.399 -255.156 44.138 -253.285 43.877 C-250.336 43.47 -247.387 43.064 -244.438 42.659 C-241.591 42.267 -238.745 41.87 -235.898 41.473 C-235.027 41.355 -234.156 41.237 -233.259 41.116 C-232.425 40.999 -231.591 40.882 -230.732 40.762 C-229.648 40.613 -229.648 40.613 -228.543 40.462 C-225.841 40.025 -225.841 40.025 -222.68 38.962 C-216.063 37.289 -209.158 37.782 -202.383 37.852 C-200.802 37.861 -199.221 37.869 -197.639 37.876 C-194.245 37.892 -190.851 37.915 -187.456 37.941 C-182.074 37.983 -176.693 38.006 -171.311 38.025 C-156.01 38.082 -140.709 38.16 -125.409 38.267 C-116.95 38.327 -108.491 38.368 -100.032 38.389 C-94.698 38.404 -89.364 38.44 -84.029 38.494 C-80.688 38.522 -77.348 38.528 -74.007 38.529 C-72.475 38.533 -70.943 38.546 -69.412 38.569 C-47.242 38.884 -28.848 30.318 -13 15 C-8.337 10.299 -3.679 5.519 0 0 Z " fill="#FEFEFE" transform="translate(662,752)"/>
<path d="M0 0 C0.818 0.244 1.635 0.488 2.478 0.739 C30.694 9.302 54.065 22.327 69.688 48.25 C76.034 60.171 79.395 73.872 79.25 87.312 C79.242 88.24 79.234 89.168 79.225 90.124 C79.056 100.496 77.281 109.586 74.125 119.438 C73.758 120.593 73.758 120.593 73.384 121.772 C71.693 126.778 69.891 131.232 65.178 134.114 C62.662 135.138 60.803 135.258 58.09 135.266 C57.115 135.27 56.139 135.274 55.134 135.278 C54.079 135.269 53.024 135.26 51.938 135.25 C50.828 135.243 49.719 135.236 48.577 135.229 C25.534 134.951 2.796 132.172 -20 129 C-20.747 128.896 -21.495 128.792 -22.265 128.685 C-24.622 128.357 -26.979 128.028 -29.336 127.699 C-30.126 127.589 -30.916 127.479 -31.73 127.366 C-35.552 126.832 -39.373 126.296 -43.193 125.751 C-51.49 124.575 -59.787 123.534 -68.123 122.678 C-71.494 122.324 -74.732 121.906 -78 121 C-79.81 120.847 -81.624 120.726 -83.438 120.625 C-90.114 120.151 -96.674 119.218 -103.291 118.225 C-109.547 117.304 -115.805 116.572 -122.094 115.922 C-131.561 114.941 -140.961 113.853 -150.312 112.062 C-151.112 111.917 -151.911 111.771 -152.735 111.621 C-158.839 110.372 -163.425 108.362 -167 103 C-170.466 80.669 -152.547 52.387 -140 35 C-123.7 12.949 -101.385 -0.454 -74.375 -5.229 C-50.212 -8.64 -23.35 -7.007 0 0 Z " fill="#FEFEFE" transform="translate(296,581)"/>
<path d="M0 0 C2.647 2.124 5.142 4.311 7.594 6.656 C8.62 7.619 8.62 7.619 9.668 8.602 C12.908 11.74 15.967 14.979 18.594 18.656 C18.594 19.316 18.594 19.976 18.594 20.656 C16.828 20.844 16.828 20.844 15.027 21.036 C-27.206 23.421 -27.206 23.421 -66.063 37.779 C-68.134 40.673 -67.853 43.691 -67.84 47.121 C-67.85 48.233 -67.85 48.233 -67.86 49.368 C-67.874 51.777 -67.861 54.185 -67.844 56.594 C-67.842 57.816 -67.842 57.816 -67.84 59.062 C-67.8 71.7 -66.631 83.405 -63.406 95.656 C-63.06 97.654 -62.724 99.654 -62.406 101.656 C-67.101 101.98 -71.79 102.214 -76.493 102.37 C-78.089 102.435 -79.683 102.524 -81.276 102.637 C-86.573 103.003 -91.253 103.06 -96.406 101.656 C-100.362 97.782 -102.255 93.774 -104.406 88.656 C-105.11 87.31 -105.82 85.968 -106.543 84.633 C-115.349 65.601 -121.452 46.464 -114.406 25.656 C-107.731 9.681 -96.264 -1.921 -80.312 -8.648 C-77.693 -9.613 -75.061 -10.484 -72.406 -11.344 C-71.2 -11.858 -71.2 -11.858 -69.969 -12.383 C-48.18 -20.553 -18.274 -13.206 0 0 Z " fill="#FEFEFE" transform="translate(464.40625,209.34375)"/>
<path d="M0 0 C0.7 -0.002 1.4 -0.004 2.121 -0.005 C4.451 -0.01 6.781 -0.007 9.111 -0.003 C10.756 -0.004 12.401 -0.005 14.047 -0.006 C17.52 -0.008 20.992 -0.006 24.465 -0.001 C28.814 0.005 33.162 0.001 37.511 -0.004 C64.881 -0.036 92.315 0.009 119.607 2.322 C121.859 2.51 124.113 2.68 126.366 2.848 C151.706 4.851 151.706 4.851 161.099 13.129 C163.419 15.941 164.003 17.487 164.536 21.067 C163.871 25.725 162.005 28.657 158.263 31.547 C151.489 35.973 144.989 37.463 137.036 38.192 C136.285 38.27 135.535 38.348 134.761 38.428 C116.092 40.231 97.313 40.314 78.575 40.368 C77.357 40.372 76.138 40.376 74.882 40.38 C68.462 40.401 62.041 40.415 55.62 40.425 C49.009 40.436 42.397 40.47 35.786 40.51 C30.671 40.536 25.557 40.544 20.442 40.548 C18.003 40.553 15.563 40.564 13.124 40.583 C9.727 40.607 6.331 40.606 2.933 40.599 C1.935 40.612 0.936 40.625 -0.092 40.638 C-7.011 40.587 -11.386 39.347 -16.608 34.567 C-21.019 28.831 -22.43 25.181 -22.276 17.946 C-21.351 10.998 -16.744 6.571 -11.55 2.258 C-7.86 -0.268 -4.324 0.003 0 0 Z " fill="#FEFEFE" transform="translate(248.901123046875,740.87060546875)"/>
<path d="M0 0 C1.536 0.001 1.536 0.001 3.103 0.002 C19.244 0.046 34.303 1.22 49.938 5.5 C51.218 5.811 52.498 6.121 53.816 6.441 C73.736 11.787 95.612 24.906 107.938 41.5 C107.938 42.16 107.938 42.82 107.938 43.5 C107.014 43.504 106.09 43.507 105.138 43.511 C96.315 43.549 87.493 43.607 78.671 43.684 C74.139 43.723 69.606 43.755 65.073 43.771 C29.94 43.54 29.94 43.54 -3.988 51.766 C-6.062 52.5 -6.062 52.5 -9.062 52.5 C-9.5 51.705 -9.938 50.911 -10.388 50.092 C-11.691 47.727 -12.994 45.362 -14.297 42.998 C-15.768 40.329 -17.237 37.659 -18.705 34.989 C-21.809 29.347 -24.912 23.71 -28.164 18.152 C-28.59 17.42 -29.016 16.688 -29.455 15.934 C-30.214 14.64 -30.982 13.351 -31.761 12.07 C-34.154 7.975 -34.154 7.975 -33.644 5.321 C-33.452 4.72 -33.26 4.119 -33.062 3.5 C-22.447 -0.658 -11.204 -0.048 0 0 Z " fill="#FEFEFE" transform="translate(782.0625,618.5)"/>
<path d="M0 0 C14.821 2.152 29.857 25.718 38.328 36.973 C52.385 56.005 64.153 75.89 74.5 97.125 C75.017 98.181 75.534 99.236 76.067 100.324 C78.709 105.845 80.79 110.994 82 117 C75.807 120.616 69.45 123.71 62.918 126.668 C61.201 127.452 59.497 128.266 57.828 129.148 C54.746 130.584 52.334 130.409 49 130 C43.823 125.898 41.31 120.437 38.375 114.625 C37.854 113.61 37.332 112.595 36.795 111.549 C32.77 103.66 28.946 95.681 25.166 87.673 C21.741 80.451 18.138 73.334 14.438 66.25 C13.924 65.267 13.411 64.284 12.883 63.271 C11.027 59.743 9.213 56.32 7 53 C7.207 50.879 7.207 50.879 7.812 48.562 C8.005 47.801 8.197 47.039 8.395 46.254 C8.773 44.846 9.157 43.439 9.551 42.035 C11.243 34.37 10.241 27.966 6.434 21.16 C4.145 17.712 1.41 15.118 -1.812 12.562 C-3.728 10.042 -3.368 8.066 -3 5 C-1.5 2.125 -1.5 2.125 0 0 Z " fill="#FEFEFE" transform="translate(640,305)"/>
<path d="M0 0 C6.547 -0.025 13.094 -0.043 19.641 -0.055 C21.866 -0.06 24.091 -0.067 26.316 -0.075 C29.523 -0.088 32.73 -0.093 35.938 -0.098 C36.924 -0.103 37.911 -0.108 38.928 -0.113 C44.378 -0.114 49.617 0.112 55 1 C55.495 1.495 55.495 1.495 56 2 C58.301 2.094 60.604 2.117 62.906 2.114 C63.989 2.114 63.989 2.114 65.094 2.114 C67.491 2.113 69.888 2.105 72.285 2.098 C73.943 2.096 75.6 2.094 77.258 2.093 C81.63 2.09 86.001 2.08 90.372 2.069 C94.83 2.058 99.287 2.054 103.744 2.049 C112.496 2.038 121.248 2.021 130 2 C130.088 5.875 130.141 9.749 130.188 13.625 C130.213 14.719 130.238 15.814 130.264 16.941 C130.36 27.496 130.36 27.496 127 32 C123.459 34.811 120.839 35.371 116.375 35.328 C115.22 35.324 114.066 35.319 112.876 35.315 C111.597 35.294 110.318 35.272 109 35.25 C107.621 35.237 106.243 35.224 104.864 35.212 C100.844 35.173 96.824 35.11 92.804 35.044 C89.793 34.997 86.783 34.958 83.772 34.921 C39.319 34.363 39.319 34.363 19.562 33.25 C18.434 33.201 17.306 33.151 16.144 33.1 C9.77 32.666 6.286 31.878 2 27 C0.269 23.44 -0.241 20.64 -0.195 16.699 C-0.189 15.723 -0.182 14.746 -0.176 13.74 C-0.159 12.733 -0.142 11.725 -0.125 10.688 C-0.116 9.661 -0.107 8.634 -0.098 7.576 C-0.074 5.051 -0.041 2.525 0 0 Z " fill="#FEFEFE" transform="translate(126,501)"/>
<path d="M0 0 C3.254 2.141 4.73 3.94 6.32 7.477 C8.152 11.34 10.135 15 12.367 18.648 C12.942 19.591 13.517 20.533 14.109 21.504 C15.303 23.445 16.504 25.383 17.711 27.316 C18.278 28.251 18.845 29.186 19.43 30.148 C19.948 30.986 20.466 31.823 21 32.685 C22 35 22 35 21.82 37.134 C20.408 40.347 17.654 42.46 15.125 44.812 C-2.335 61.8 -13.054 83.197 -21.059 106.019 C-26.165 120.551 -26.165 120.551 -33 125 C-36.121 126.414 -36.121 126.414 -39.438 127.625 C-40.529 128.03 -41.621 128.435 -42.746 128.852 C-43.82 129.231 -44.894 129.61 -46 130 C-47.043 130.379 -48.086 130.758 -49.16 131.148 C-52 132 -52 132 -56 132 C-56.845 114.509 -56.964 95.797 -45.441 81.9 C-42.315 77.779 -39.833 73.223 -37.25 68.75 C-36.653 67.721 -36.056 66.693 -35.441 65.633 C-30.066 56.284 -25.101 46.741 -20.18 37.148 C-13.736 24.616 -6.854 12.311 0 0 Z " fill="#FEFEFE" transform="translate(724,648)"/>
<path d="M0 0 C18.81 0 37.62 0 57 0 C57.163 35.329 57.163 35.329 56 44 C54.338 45.662 52.332 45.128 50.113 45.139 C49.422 45.137 48.731 45.135 48.02 45.133 C46.944 45.135 46.944 45.135 45.847 45.137 C43.502 45.139 41.157 45.132 38.812 45.125 C38.022 45.124 37.231 45.123 36.416 45.122 C23.589 45.105 10.805 44.782 -2 44 C-2.061 40.792 -2.095 37.584 -2.125 34.375 C-2.142 33.51 -2.159 32.645 -2.176 31.754 C-2.251 21 -0.99 10.889 0 0 Z " fill="#FEFEFE" transform="translate(203,426)"/>
<path d="M0 0 C18.15 0 36.3 0 55 0 C55 15.75 55 15.75 54.562 21.93 C54.481 23.113 54.4 24.296 54.316 25.515 C54.212 26.954 54.108 28.393 54 29.875 C53.67 34.536 53.34 39.197 53 44 C34.52 44 16.04 44 -3 44 C-2.876 38.782 -2.752 33.564 -2.625 28.188 C-2.591 26.565 -2.557 24.942 -2.522 23.27 C-2.486 21.958 -2.451 20.645 -2.414 19.293 C-2.403 18.637 -2.391 17.98 -2.38 17.304 C-2.198 11.253 -1.12 6.162 0 0 Z " fill="#FEFEFE" transform="translate(130,425)"/>
<path d="M0 0 C8.615 4.307 13.473 13.372 17 22 C23.069 40.269 25.223 60.494 17.125 78.5 C15.263 81.865 13.462 84.148 10 86 C6.002 86.07 3.901 85.795 0.875 83.125 C-9.966 65.056 -13.339 44.466 -13.5 23.688 C-13.518 22.454 -13.537 21.221 -13.555 19.95 C-13.507 12.86 -12.938 7.971 -9 2 C-5.466 -0.356 -4.164 -0.49 0 0 Z " fill="#070708" transform="translate(750,464)"/>
<path d="M0 0 C0.398 1.845 0.398 1.845 0.805 3.727 C1.161 5.359 1.518 6.992 1.875 8.625 C2.136 9.837 2.136 9.837 2.402 11.074 C3.372 15.492 4.538 19.714 6 24 C6.808 27.256 6.926 29.752 6 33 C0.856 40.172 -5.865 44.816 -14 48 C-15.072 48.433 -16.145 48.866 -17.25 49.312 C-31.799 51.98 -44.439 48.389 -57 41 C-59.163 39.474 -61.252 37.9 -63.309 36.234 C-65.095 34.8 -65.095 34.8 -68 34 C-68.217 30.934 -68.375 27.883 -68.5 24.812 C-68.567 23.948 -68.634 23.084 -68.703 22.193 C-68.783 19.586 -68.726 17.509 -68 15 C-64.04 10.833 -58.293 9.16 -52.875 7.688 C-51.717 7.361 -50.56 7.035 -49.367 6.699 C-46.063 6.013 -43.356 5.641 -40 6 C-35.242 9.345 -33.017 14.406 -32 20 C-31.562 23.188 -31.562 23.188 -32 26 C-34 28.375 -34 28.375 -37 30 C-42.155 30.416 -46.915 29.847 -52 29 C-52 29.66 -52 30.32 -52 31 C-46.628 33.629 -41.955 34.608 -36 35 C-35.01 37.31 -34.02 39.62 -33 42 C-30.525 41.505 -30.525 41.505 -28 41 C-24.956 31.867 -27.051 20.931 -30 12 C-31.816 8.316 -31.816 8.316 -35 6 C-35 5.34 -35 4.68 -35 4 C-29.239 2.702 -23.913 1.743 -18 2 C-18.325 2.519 -18.65 3.039 -18.984 3.574 C-23.481 14.314 -18.839 31.116 -17 42 C-19.31 42 -21.62 42 -24 42 C-24 42.99 -24 43.98 -24 45 C-19.349 45.269 -19.349 45.269 -15 44 C-14.875 38.422 -14.875 38.422 -16 33 C-14.329 33.278 -14.329 33.278 -12.625 33.562 C-9.174 34.317 -9.174 34.317 -7 33 C-6.833 30.083 -6.833 30.083 -7 27 C-9.762 24.238 -12.207 24.421 -16 24 C-16.054 21.208 -16.094 18.417 -16.125 15.625 C-16.142 14.831 -16.159 14.037 -16.176 13.219 C-16.193 11.145 -16.103 9.071 -16 7 C-14 5 -14 5 -10.375 4.875 C-8.704 4.937 -8.704 4.937 -7 5 C-7 4.34 -7 3.68 -7 3 C-7.66 3 -8.32 3 -9 3 C-9 2.34 -9 1.68 -9 1 C-5.918 0.087 -3.203 -0.043 0 0 Z " fill="#F6ECE3" transform="translate(470,238)"/>
<path d="M0 0 C0.33 0 0.66 0 1 0 C1.332 7.955 1.24 14.665 -2 22 C-2.267 22.664 -2.534 23.328 -2.809 24.012 C-7.527 34.687 -15.326 40.73 -26 45 C-34.895 47.928 -45.262 47.174 -53.562 43 C-62.879 37.711 -68.113 31.33 -71 21 C-72.384 14.358 -73.316 7.788 -73 1 C-68.475 3.205 -64.074 5.653 -59.664 8.078 C-47.761 14.51 -34.646 17.074 -21.5 13.375 C-13.054 10.556 -6.008 6.589 0 0 Z " fill="#F6ECE3" transform="translate(476,276)"/>
<path d="M0 0 C0.938 -0.024 1.877 -0.049 2.844 -0.074 C11.677 -0.111 19.28 2.215 26.188 7.875 C26.898 8.442 27.608 9.009 28.34 9.594 C30.258 11.382 31.749 13.23 33.25 15.375 C30.125 15.404 27 15.422 23.875 15.438 C22.986 15.446 22.096 15.454 21.18 15.463 C20.329 15.466 19.478 15.469 18.602 15.473 C17.423 15.481 17.423 15.481 16.221 15.489 C14.25 15.375 14.25 15.375 12.25 14.375 C2.19 13.44 -8.921 12.912 -17.75 18.375 C-18.852 19.046 -18.852 19.046 -19.977 19.73 C-26.275 24.002 -29.269 29.216 -31.75 36.375 C-32.832 45.065 -31.891 52.186 -26.75 59.375 C-21.874 65.105 -15.076 68.767 -7.581 69.622 C-1.436 70.049 4.718 70.079 10.875 70.125 C12.757 70.153 14.638 70.183 16.52 70.215 C21.096 70.288 25.673 70.338 30.25 70.375 C29.299 71.508 28.344 72.639 27.388 73.768 C26.856 74.398 26.325 75.028 25.778 75.677 C19.646 82.493 10.637 83.902 1.961 84.664 C-9.867 85.162 -19.764 81.871 -28.82 74.191 C-34.159 69.166 -37.842 64.117 -40.75 57.375 C-41.107 56.657 -41.464 55.939 -41.832 55.199 C-44.989 45.487 -43.769 32.966 -39.301 23.953 C-30.129 8.706 -18.032 0.024 0 0 Z " fill="#FEFEFE" transform="translate(252.75,718.625)"/>
<path d="M0 0 C7.319 -0.369 13.272 0.022 20 3 C20.887 3.379 21.774 3.758 22.688 4.148 C30.45 7.879 35.216 12.905 40 20 C40.55 20.81 41.101 21.619 41.668 22.453 C47.04 32.023 46.414 44.368 44.184 54.828 C40.346 66.115 32.171 74.626 21.789 80.184 C12.032 84.522 -1.543 85.13 -11.625 81.375 C-13.867 80.262 -13.867 80.262 -16 79 C-16.786 78.553 -17.573 78.105 -18.383 77.645 C-27.896 71.789 -34.89 62.832 -38 52 C-39.513 42.437 -39.403 31.331 -34 23 C-31.819 20.166 -29.521 17.535 -27 15 C-24.938 16.625 -24.938 16.625 -23 19 C-23 22.031 -23.675 24.316 -24.973 27.047 C-28.927 35.494 -29.763 45 -27.117 54.004 C-22.658 63.676 -15.626 68.927 -6 73 C1.464 75.488 9.53 75.058 16.683 71.85 C22.657 68.85 27.522 65.768 31 60 C31.407 59.403 31.815 58.806 32.234 58.191 C36.462 50.763 36.181 41.253 35 33 C32.5 24.341 27.755 18.505 20 14 C15.901 11.924 12.326 10.97 7.75 10.75 C4 10 4 10 2.609 8.492 C0.883 5.587 0 3.393 0 0 Z " fill="#F5F5F5" transform="translate(801,720)"/>
<path d="M0 0 C1.669 0.323 3.335 0.658 5 1 C6.722 1.064 8.445 1.086 10.168 1.07 C11.144 1.081 12.121 1.091 13.127 1.102 C15.148 1.117 17.169 1.11 19.189 1.078 C26.166 1.206 29.949 2.779 35.416 7.053 C40.047 10.543 45.233 13.038 50.375 15.688 C51.945 16.52 51.945 16.52 53.547 17.369 C59.701 20.564 65.765 23.114 72.404 25.127 C75.944 26.318 78.857 28 82 30 C82 30.99 82 31.98 82 33 C75.2 35.563 68.68 35.436 61.5 35.438 C60.801 35.44 60.101 35.442 59.381 35.445 C45.065 35.445 31.548 33.398 17.515 30.618 C14.985 30.173 12.521 29.809 9.973 29.53 C9.3 29.454 8.628 29.379 7.934 29.301 C6.051 29.098 4.165 28.916 2.28 28.736 C-1.493 27.889 -3.322 26.766 -6 24 C-7.324 15.792 -4.137 8.488 -1 1 C-0.67 0.67 -0.34 0.34 0 0 Z " fill="#FEFEFE" transform="translate(491,705)"/>
<path d="M0 0 C1.078 0.518 2.155 1.036 3.266 1.57 C20.984 10.975 32.917 27.193 40.031 45.68 C45.61 63.915 42.066 83.656 34.125 100.562 C31.288 105.836 27.865 110.443 24 115 C22.855 116.458 22.855 116.458 21.688 117.945 C9.935 132.001 -10.283 139.409 -28.088 141.211 C-47.746 142.514 -66.869 136.518 -82 124 C-82.79 123.372 -83.58 122.744 -84.395 122.098 C-97.627 111.074 -106.722 94.942 -108.302 77.712 C-108.436 74.322 -108.468 70.954 -108.438 67.562 C-108.43 66.373 -108.422 65.184 -108.415 63.959 C-108.257 55.603 -107.565 48.648 -104 41 C-103.553 39.973 -103.105 38.945 -102.645 37.887 C-97.8 27.458 -90.681 17.454 -81 11 C-80.01 11 -79.02 11 -78 11 C-79.516 14.681 -81.699 16.72 -84.625 19.375 C-97.785 32.364 -103.427 49.201 -103.688 67.375 C-103.523 85.546 -97.685 101.268 -85.469 114.805 C-78.791 121.267 -71.315 125.988 -63 130 C-61.93 130.53 -60.86 131.06 -59.758 131.605 C-51.202 135.133 -43.048 135.481 -33.875 135.562 C-32.708 135.577 -31.54 135.592 -30.337 135.607 C-13.746 135.411 1.591 128.92 14 118 C14.75 117.355 15.5 116.711 16.273 116.047 C27.312 105.875 32.207 93.162 36 79 C36.268 78.03 36.268 78.03 36.542 77.041 C40.296 60.311 34.976 42.97 26.193 28.78 C16.562 14.416 1.228 3.34 -15.659 -0.634 C-20.576 -1.403 -25.536 -1.243 -30.5 -1.188 C-32.134 -1.187 -32.134 -1.187 -33.801 -1.186 C-39.623 -1.154 -45.243 -0.873 -51 0 C-51.495 -1.98 -51.495 -1.98 -52 -4 C-36.013 -9.983 -15.082 -7.541 0 0 Z " fill="#E8E8E8" transform="translate(837,696)"/>
<path d="M0 0 C1.001 0 2.001 0 3.033 0.001 C4.642 0.024 4.642 0.024 6.284 0.048 C7.388 0.052 8.492 0.056 9.63 0.06 C13.156 0.077 16.681 0.115 20.206 0.153 C22.597 0.168 24.987 0.182 27.378 0.194 C33.238 0.225 39.096 0.283 44.956 0.341 C44.626 10.241 44.296 20.141 43.956 30.341 C25.476 30.341 6.996 30.341 -12.044 30.341 C-12.044 9.341 -12.044 9.341 -9.044 3.341 C-6.115 0.44 -4.066 -0.031 0 0 Z " fill="#FEFEFE" transform="translate(142.0439453125,387.659423828125)"/>
<path d="M0 0 C7.475 -0.152 14.949 -0.257 22.424 -0.33 C24.968 -0.36 27.511 -0.401 30.054 -0.453 C33.708 -0.525 37.361 -0.559 41.016 -0.586 C42.154 -0.617 43.293 -0.648 44.466 -0.68 C45.527 -0.68 46.588 -0.681 47.681 -0.681 C49.08 -0.701 49.08 -0.701 50.507 -0.722 C53 0 53 0 57 6 C57 13.59 57 21.18 57 29 C37.86 29 18.72 29 -1 29 C-1 14.046 -1 14.046 -0.5 7.188 C-0.452 6.483 -0.405 5.779 -0.355 5.053 C-0.241 3.368 -0.121 1.684 0 0 Z " fill="#FEFEFE" transform="translate(204,390)"/>
<path d="M0 0 C1.236 1.768 1.236 1.768 2.461 4.102 C2.926 4.973 3.391 5.844 3.87 6.742 C4.367 7.693 4.863 8.645 5.375 9.625 C6.45 11.642 7.527 13.657 8.605 15.672 C9.163 16.717 9.72 17.761 10.294 18.838 C13.02 23.891 15.85 28.884 18.688 33.875 C19.783 35.802 20.878 37.729 21.973 39.656 C22.49 40.566 23.007 41.476 23.54 42.414 C24.852 44.737 26.148 47.068 27.434 49.406 C28.164 50.729 28.894 52.052 29.625 53.375 C29.969 54.001 30.314 54.627 30.668 55.271 C32.632 58.774 34.728 62.127 36.996 65.441 C37.505 66.192 38.014 66.942 38.539 67.715 C39.523 69.15 40.524 70.573 41.547 71.98 C44.926 76.901 46.008 81.037 45 87 C42.887 90.381 41.372 90.885 37.562 92.062 C34 92 34 92 31.621 90.113 C28.091 86.308 25.888 81.692 23.5 77.125 C22.442 75.142 21.382 73.161 20.32 71.18 C19.775 70.16 19.23 69.14 18.669 68.089 C15.975 63.103 13.177 58.176 10.375 53.25 C6.062 45.651 1.776 38.037 -2.451 30.39 C-4.485 26.714 -6.535 23.05 -8.617 19.402 C-9.038 18.662 -9.46 17.922 -9.894 17.16 C-10.695 15.754 -11.5 14.349 -12.31 12.948 C-15 8.222 -15 8.222 -15 6 C-12.48 4.238 -12.48 4.238 -9.188 2.312 C-8.109 1.669 -7.03 1.026 -5.918 0.363 C-3 -1 -3 -1 0 0 Z " fill="#FEFEFE" transform="translate(770,679)"/>
<path d="M0 0 C1.644 0.001 1.644 0.001 3.322 0.002 C22.569 0.139 41.829 1.559 60.978 3.444 C68.061 4.119 75.145 4.518 82.25 4.891 C98.825 5.768 115.344 7.146 131.875 8.625 C133.041 8.728 134.207 8.832 135.408 8.938 C143.421 9.652 151.431 10.403 159.438 11.188 C160.648 11.305 161.859 11.423 163.107 11.544 C166.751 11.904 170.393 12.28 174.035 12.66 C175.133 12.768 176.23 12.876 177.361 12.987 C184.006 13.704 190.115 15.012 196.438 17.188 C196.438 18.508 196.438 19.827 196.438 21.188 C184.675 21.381 173.154 21.027 161.455 19.797 C158.935 19.532 156.414 19.28 153.893 19.029 C150.287 18.67 146.682 18.307 143.077 17.94 C133.63 16.98 124.179 16.06 114.727 15.152 C113.794 15.063 112.861 14.973 111.9 14.881 C96.405 13.401 80.922 12.224 65.375 11.438 C64.377 11.387 63.379 11.336 62.35 11.284 C60.363 11.183 58.375 11.082 56.387 10.981 C55.414 10.932 54.44 10.883 53.438 10.832 C52.477 10.784 51.517 10.735 50.528 10.686 C39.121 10.095 27.731 9.264 16.342 8.39 C14.053 8.215 11.763 8.043 9.474 7.875 C6.334 7.643 3.197 7.4 0.059 7.152 C-0.876 7.085 -1.811 7.017 -2.774 6.947 C-3.629 6.877 -4.484 6.807 -5.365 6.734 C-6.108 6.677 -6.85 6.619 -7.615 6.56 C-9.562 6.188 -9.562 6.188 -12.562 4.188 C-12.562 3.197 -12.562 2.207 -12.562 1.188 C-8.775 -0.706 -4.165 -0.003 0 0 Z " fill="#131313" transform="translate(166.5625,632.8125)"/>
<path d="M0 0 C0.808 0.391 1.616 0.782 2.449 1.186 C3.286 1.605 4.122 2.025 4.984 2.457 C5.806 2.857 6.627 3.258 7.473 3.67 C14.381 7.048 14.381 7.048 16.359 8.291 C22.624 11.968 28.57 11.839 35.695 11.809 C37.536 11.826 37.536 11.826 39.413 11.844 C43.312 11.88 47.21 11.889 51.109 11.895 C55.03 11.911 58.95 11.933 62.87 11.966 C65.305 11.986 67.74 11.995 70.175 11.993 C71.818 12.004 71.818 12.004 73.494 12.014 C74.46 12.015 75.426 12.017 76.422 12.018 C78.734 12.27 78.734 12.27 80.734 14.27 C80.376 17.83 79.245 20.556 77.52 23.66 C77.081 24.452 76.642 25.243 76.189 26.059 C75.73 26.871 75.27 27.683 74.797 28.52 C74.341 29.347 73.886 30.175 73.416 31.027 C69.994 37.14 69.994 37.14 67.734 38.27 C65.483 38.355 63.229 38.377 60.977 38.367 C59.982 38.365 59.982 38.365 58.967 38.363 C56.848 38.357 54.729 38.345 52.609 38.332 C51.173 38.327 49.737 38.322 48.301 38.318 C44.779 38.307 41.257 38.29 37.734 38.27 C38.389 37.343 39.044 36.416 39.719 35.461 C41.957 32.464 41.957 32.464 41.984 29.207 C39.691 23.817 33.726 21.581 28.5 19.418 C26.996 18.823 25.491 18.232 23.984 17.645 C16.637 14.664 9.625 11.267 2.672 7.457 C1.378 6.755 1.378 6.755 0.058 6.039 C-0.741 5.593 -1.54 5.147 -2.363 4.688 C-3.07 4.293 -3.776 3.899 -4.504 3.493 C-6.266 2.27 -6.266 2.27 -8.266 -0.73 C-4.842 -1.932 -3.222 -1.588 0 0 Z " fill="#787A79" transform="translate(538.265625,705.73046875)"/>
<path d="M0 0 C0.763 0.062 1.526 0.124 2.312 0.188 C0.826 3.653 -1.171 5.835 -3.812 8.5 C-15.715 21.552 -20.968 37.413 -21.125 54.875 C-21.135 55.825 -21.146 56.775 -21.156 57.754 C-20.93 75.941 -12.716 91.785 -0.5 104.875 C14.901 119.668 33.869 124.643 54.598 124.767 C74.859 124.263 92.477 114.582 106.312 100.188 C110.854 94.618 114.3 88.693 117.312 82.188 C118.632 82.188 119.952 82.188 121.312 82.188 C117.259 98.13 105.46 109.7 92.062 118.5 C79.562 125.866 65.332 129.564 50.875 129.438 C49.559 129.449 49.559 129.449 48.217 129.461 C27.337 129.399 9.245 120.574 -5.812 106.438 C-16.896 95.045 -25.163 78.139 -25.688 62.188 C-25.719 61.549 -25.75 60.911 -25.782 60.253 C-26.79 38.136 -20.652 19.778 -5.688 3.188 C-5.172 2.609 -4.656 2.03 -4.125 1.434 C-2.688 0.188 -2.688 0.188 0 0 Z " fill="#F6ECE3" transform="translate(202.6875,706.8125)"/>
<path d="M0 0 C3.765 0.111 5.095 1.085 7.938 3.625 C16.477 14.304 19.367 29.125 19.25 42.438 C19.258 43.315 19.265 44.192 19.273 45.096 C19.245 54.667 17.658 62.616 13 71 C12.34 71 11.68 71 11 71 C-1.09 56.649 -2.352 33.641 -2.375 15.875 C-2.377 14.647 -2.378 13.419 -2.38 12.155 C-2.269 3.404 -2.269 3.404 0 0 Z " fill="#FEFEFE" transform="translate(746,472)"/>
<path d="M0 0 C18.81 0.33 37.62 0.66 57 1 C57 6.94 57 12.88 57 19 C37.86 19 18.72 19 -1 19 C-0.67 12.73 -0.34 6.46 0 0 Z " fill="#FEFEFE" transform="translate(200,477)"/>
<path d="M0 0 C18.48 0 36.96 0 56 0 C56 6.741 55.843 12.468 55 19 C36.635 19.113 18.344 19.027 0 18 C0 12.06 0 6.12 0 0 Z " fill="#FEFEFE" transform="translate(126,476)"/>
<path d="M0 0 C6.791 3.06 12.194 8.042 15 15 C15.942 20.676 15.825 25.289 13.312 30.5 C9.151 34.999 5.978 37.714 -0.25 38.312 C-7.843 37.68 -11.798 33.532 -16.52 28 C-20.336 22.845 -20.91 18.312 -20 12 C-18.282 7.506 -15.718 4.144 -11.688 1.5 C-7.564 -0.177 -4.334 -1.035 0 0 Z " fill="#FEFEFE" transform="translate(559,332)"/>
<path d="M0 0 C1.874 0.462 3.748 0.923 5.622 1.384 C17.529 4.34 29.281 7.608 40.88 11.615 C44.424 12.813 47.999 13.903 51.572 15.005 C95.887 28.755 95.887 28.755 103.688 42.938 C104.492 46.154 104.442 49.137 104.312 52.438 C102.312 50.438 102.312 50.438 100.75 47.25 C95.492 38.021 85.861 34.71 76.312 31.438 C74.998 30.943 73.685 30.444 72.375 29.938 C71.021 29.437 69.667 28.937 68.312 28.438 C67.369 28.08 66.425 27.723 65.453 27.355 C49.565 21.481 33.116 17.345 16.766 12.978 C11.234 11.5 5.713 9.995 0.208 8.423 C-13.923 4.4 -28.273 1.261 -42.688 -1.562 C-41.688 -3.562 -41.688 -3.562 -40.091 -4.166 C-26.354 -6.433 -13.257 -3.369 0 0 Z " fill="#F5F5F5" transform="translate(465.6875,501.5625)"/>
<path d="M0 0 C10.444 -1.492 19.447 4.27 27.867 9.926 C30.361 11.85 32.686 13.863 35 16 C35.902 16.822 36.805 17.645 37.734 18.492 C54.63 34.595 67.725 58.179 69.177 81.89 C69.851 114.93 62.02 142.249 38.625 166.688 C33.842 171.377 28.514 175.218 23 179 C22.34 178.67 21.68 178.34 21 178 C21.701 177.443 22.403 176.886 23.125 176.312 C38.669 163.81 49.367 150.389 57 132 C57.4 131.055 57.799 130.11 58.211 129.137 C66.05 109.245 66.534 87.258 60 67 C59.7 65.948 59.399 64.896 59.09 63.812 C55.252 51.054 48.35 40.272 40 30 C38.894 28.61 38.894 28.61 37.766 27.191 C27.607 15.175 14.147 7.477 0 1 C0 0.67 0 0.34 0 0 Z " fill="#F6ECE3" transform="translate(842,669)"/>
<path d="M0 0 C0.66 0 1.32 0 2 0 C2.438 0.795 2.875 1.589 3.326 2.408 C4.628 4.773 5.931 7.138 7.235 9.502 C8.706 12.171 10.174 14.841 11.64 17.511 C14.745 23.16 17.849 28.802 21.137 34.348 C21.567 35.08 21.998 35.812 22.442 36.566 C23.21 37.862 23.991 39.151 24.787 40.43 C27.137 44.415 27.137 44.415 26.484 47.195 C24.719 49.342 22.936 50.766 20.625 52.312 C19.854 52.845 19.083 53.377 18.289 53.926 C16 55 16 55 14.089 54.936 C10.862 53.49 9.983 51.147 8.285 48.094 C7.948 47.495 7.61 46.896 7.262 46.279 C6.183 44.36 5.123 42.43 4.062 40.5 C3.353 39.231 2.643 37.963 1.932 36.695 C0.56 34.248 -0.799 31.795 -2.148 29.336 C-3.288 27.283 -4.451 25.243 -5.653 23.227 C-6.119 22.44 -6.586 21.654 -7.066 20.844 C-7.469 20.186 -7.872 19.528 -8.287 18.85 C-9.203 16.472 -8.875 15.362 -8 13 C-6.883 10.91 -5.711 8.849 -4.5 6.812 C-3.871 5.746 -3.242 4.68 -2.594 3.582 C-1 1 -1 1 0 0 Z " fill="#FEFEFE" transform="translate(738,624)"/>
<path d="M0 0 C0.33 0 0.66 0 1 0 C1.33 2.97 1.66 5.94 2 9 C4.97 9.495 4.97 9.495 8 10 C7.522 11.771 7.042 13.542 6.562 15.312 C6.296 16.299 6.029 17.285 5.754 18.301 C5.219 20.215 4.629 22.114 4 24 C3.579 29.469 4.053 33.319 7 38 C13.55 42.839 21.076 44.088 29 45 C29 45.33 29 45.66 29 46 C13.82 46 -1.36 46 -17 46 C-17 36.982 -17 36.982 -16.449 33.23 C-16.329 32.409 -16.209 31.588 -16.085 30.741 C-15.954 29.899 -15.823 29.056 -15.688 28.188 C-15.554 27.312 -15.42 26.436 -15.282 25.534 C-12.592 8.592 -12.592 8.592 -10 6 C-8.314 5.928 -6.625 5.916 -4.938 5.938 C-4.018 5.947 -3.099 5.956 -2.152 5.965 C-1.442 5.976 -0.732 5.988 0 6 C0 4.02 0 2.04 0 0 Z " fill="#787A79" transform="translate(474,697)"/>
<path d="M0 0 C2.31 0 4.62 0 7 0 C7.147 0.811 7.294 1.622 7.445 2.457 C10.172 15.916 16.167 27.685 27.59 35.852 C30.02 37.335 32.47 38.696 35 40 C36.093 40.598 37.186 41.196 38.312 41.812 C47.966 46.078 62.865 45.932 72.758 42.648 C79.798 39.858 85.405 36.087 91 31 C92.984 31.094 92.984 31.094 95 32 C96.75 34.062 96.75 34.062 98 36 C85.179 46.746 70.783 52.925 53.797 52.379 C35.516 50.555 20.627 41.657 9.055 27.645 C2.998 19.047 0.398 10.455 0 0 Z " fill="#969898" transform="translate(196,764)"/>
<path d="M0 0 C2.574 1.385 4.757 3.136 7 5 C7.616 5.497 8.232 5.995 8.866 6.508 C13.901 10.682 18.055 15.11 21 21 C21.25 24.438 21.25 24.438 21 28 C19.484 29.723 19.484 29.723 18 31 C17.986 30.443 17.972 29.886 17.957 29.312 C17.506 22.101 15.374 17.085 9.996 12.168 C5.973 8.842 5.973 8.842 1 8 C1.531 8.447 2.062 8.895 2.609 9.355 C14.637 19.65 14.637 19.65 15.25 27 C15.008 29.905 14.51 31.546 13 34 C12.34 34 11.68 34 11 34 C11.081 33.31 11.162 32.621 11.246 31.91 C11.626 26.263 11.359 22.657 7.875 18.062 C4.898 14.679 1.921 12.199 -2 10 C0.625 14.14 3.472 17.822 6.73 21.484 C9.336 24.594 9.086 27.046 9 31 C8.01 31.33 7.02 31.66 6 32 C5.814 30.969 5.629 29.938 5.438 28.875 C4.27 24.893 2.31 22.62 -0.953 20.105 C-4.662 18.102 -7.928 18.186 -12 19 C-14.524 19.944 -16.965 21.012 -19.426 22.109 C-23.595 23.552 -27.647 23.333 -32 23 C-31.859 20.729 -31.712 18.458 -31.562 16.188 C-31.481 14.923 -31.4 13.658 -31.316 12.355 C-31 9 -31 9 -30 6 C-28.222 5.324 -28.222 5.324 -25.922 4.902 C-25.09 4.741 -24.259 4.579 -23.402 4.412 C-22.527 4.255 -21.652 4.099 -20.75 3.938 C-14.388 2.836 -14.388 2.836 -8.266 0.879 C-5.211 -0.306 -3.261 -0.457 0 0 Z " fill="#F6ECE3" transform="translate(577,421)"/>
<path d="M0 0 C19.616 -0.724 36.954 0.719 52.25 14.562 C60.93 23.929 68.159 37.893 68.25 50.812 C68.168 51.864 68.085 52.916 68 54 C65.69 54 63.38 54 61 54 C60.753 52.742 60.505 51.484 60.25 50.188 C57.189 36.721 51.525 25.149 40 17 C36.765 15.051 33.482 13.458 30 12 C29.242 11.679 28.484 11.358 27.703 11.027 C19.975 8.24 12.091 8.729 4 9 C0 2.25 0 2.25 0 0 Z " fill="#969898" transform="translate(792,705)"/>
<path d="M0 0 C10.422 -0.35 16.408 3.854 23.98 10.883 C27.633 14.712 30.442 18.546 31.625 23.75 C30.708 27.05 28.786 28.143 26 30 C22.047 31.977 17.308 31.434 13 31 C7.657 29.149 4.471 25.908 1.965 20.953 C0.633 16.877 0.537 12.952 0.375 8.688 C0.336 7.852 0.298 7.016 0.258 6.154 C0.164 4.103 0.081 2.052 0 0 Z " fill="#070708" transform="translate(689,535)"/>
<path d="M0 0 C13.346 -0.253 26.564 0.547 39.875 1.438 C42.995 1.642 46.116 1.844 49.236 2.047 C51.271 2.179 53.306 2.312 55.34 2.446 C60.736 2.8 66.131 3.121 71.531 3.398 C110.163 5.384 110.163 5.384 119.25 14.938 C121.839 18.038 122.308 19.978 122 24 C119 23 119 23 116.812 20.688 C108.547 12.79 97.674 11.767 86.746 10.965 C85.686 10.881 84.627 10.798 83.535 10.712 C80.17 10.447 76.804 10.192 73.438 9.938 C70.068 9.678 66.699 9.416 63.329 9.153 C61.239 8.99 59.149 8.829 57.059 8.672 C53.111 8.368 49.215 8.031 45.295 7.461 C41.578 6.941 37.906 6.793 34.16 6.719 C33.434 6.7 32.709 6.682 31.961 6.663 C29.661 6.605 27.362 6.552 25.062 6.5 C22.032 6.432 19.003 6.358 15.973 6.281 C15.292 6.268 14.612 6.254 13.911 6.24 C9.208 6.121 4.654 5.641 0 5 C0 3.35 0 1.7 0 0 Z " fill="#F6ECE3" transform="translate(170,543)"/>
<path d="M0 0 C-2.132 4.714 -5.213 8.866 -8.112 13.127 C-10.708 16.973 -13.049 20.847 -15.25 24.938 C-17.595 28.868 -17.595 28.868 -20.875 29.938 C-29.043 27.487 -29.043 27.487 -32 24 C-33.528 17.994 -32.634 12.462 -29.812 7 C-22.489 -4.485 -11.872 -3.114 0 0 Z " fill="#FEFEFE" transform="translate(156,604)"/>
<path d="M0 0 C0.33 0 0.66 0 1 0 C1.229 5.848 0.588 10.508 -1.188 16.062 C-1.412 16.796 -1.637 17.529 -1.869 18.284 C-3.754 24.377 -5.775 30.425 -7.82 36.465 C-8.911 39.734 -9.938 43.014 -10.938 46.312 C-12.27 50.706 -13.686 55.06 -15.163 59.406 C-17.775 67.097 -20.123 74.81 -22.239 82.651 C-23.682 87.966 -25.353 93.165 -27.164 98.367 C-27.988 100.963 -28.551 103.514 -29.062 106.188 C-29.372 107.446 -29.681 108.704 -30 110 C-31.485 110.495 -31.485 110.495 -33 111 C-33.308 103.73 -32.219 97.471 -30.438 90.438 C-30.164 89.336 -29.89 88.234 -29.607 87.1 C-28.757 83.728 -27.885 80.363 -27 77 C-26.754 76.063 -26.508 75.126 -26.254 74.161 C-22.672 60.773 -18.298 47.635 -13.868 34.509 C-13.255 32.692 -12.645 30.874 -12.036 29.056 C-8.657 18.979 -5.162 9.326 0 0 Z " fill="#F6ECE3" transform="translate(515,589)"/>
<path d="M0 0 C2.128 1.058 4.239 2.129 6.332 3.254 C11.31 5.88 15.368 7.633 21 8 C16.757 17.877 6.763 26.131 -2.938 30.246 C-10.256 33 -10.256 33 -13 33 C-11.635 25.182 -8.769 18.583 -5.375 11.438 C-4.602 9.781 -4.602 9.781 -3.812 8.092 C-2.55 5.391 -1.279 2.694 0 0 Z " fill="#FEFEFE" transform="translate(122,690)"/>
<path d="M0 0 C3.96 0 7.92 0 12 0 C12.327 15.095 11.31 29.965 10 45 C6.37 45 2.74 45 -1 45 C-0.67 30.15 -0.34 15.3 0 0 Z " fill="#F5F5F5" transform="translate(267,426)"/>
<path d="M0 0 C-2.343 2.343 -4.483 3.198 -7.5 4.562 C-18.767 10.149 -27.48 18.796 -32.023 30.676 C-32.768 33.104 -33.406 35.531 -34 38 C-34.39 39.377 -34.785 40.752 -35.188 42.125 C-35.456 43.074 -35.724 44.023 -36 45 C-38.31 45 -40.62 45 -43 45 C-43.937 30.941 -37.392 18.324 -28.625 7.625 C-19.786 -1.806 -12.182 -4.147 0 0 Z " fill="#969898" transform="translate(239,713)"/>
<path d="M0 0 C2.31 0 4.62 0 7 0 C6.707 11.818 2.381 22.799 -5 32 C-5.601 32.749 -6.201 33.498 -6.82 34.27 C-16.486 45.056 -29.99 49.898 -44 52 C-44 50.02 -44 48.04 -44 46 C-43.053 45.797 -43.053 45.797 -42.086 45.59 C-27.917 42.18 -15.825 35.925 -7.418 23.699 C-3.359 16.404 -1.795 8.082 0 0 Z " fill="#969898" transform="translate(853,764)"/>
<path d="M0 0 C0.99 0 1.98 0 3 0 C1.862 3.206 0.416 6.025 -1.312 8.938 C-9.473 23.478 -12.548 39.82 -12.446 56.331 C-12.438 58.433 -12.466 60.533 -12.498 62.635 C-12.568 75.849 -9.468 87.611 -4.188 99.75 C-3.846 100.549 -3.505 101.349 -3.154 102.172 C-0.703 107.763 2.082 112.84 5.555 117.871 C6.903 119.857 7.982 121.831 9 124 C4.774 120.964 1.901 117.491 -0.938 113.188 C-1.372 112.53 -1.807 111.873 -2.254 111.196 C-16.128 89.506 -20.714 61.715 -15.873 36.509 C-13.012 23.878 -8.533 9.938 0 0 Z " fill="#DCDCDD" transform="translate(160,702)"/>
<path d="M0 0 C5.087 1.673 7.063 3.912 9.824 8.387 C13.758 17.13 10.108 26.522 7 35 C6.066 37.379 5.078 39.682 4 42 C3.34 42 2.68 42 2 42 C-2.129 32.992 -3.344 25.118 -3.312 15.25 C-3.329 14.223 -3.345 13.195 -3.361 12.137 C-3.362 11.148 -3.363 10.159 -3.363 9.141 C-3.366 8.249 -3.369 7.357 -3.372 6.438 C-2.932 3.553 -1.907 2.166 0 0 Z " fill="#FEFEFE" transform="translate(633,323)"/>
<path d="M0 0 C0 0.66 0 1.32 0 2 C-9.142 1.198 -18.268 -0.413 -27.117 -2.863 C-34.096 -4.776 -40.675 -5.286 -47.875 -5.312 C-48.767 -5.318 -49.659 -5.323 -50.579 -5.329 C-59.002 -5.238 -64.855 -4.002 -71 2 C-73.012 5.185 -73.271 7.7 -73.25 11.438 C-73.255 12.364 -73.26 13.291 -73.266 14.246 C-73.127 17.049 -73.127 17.049 -71.922 19.66 C-71 22 -71 22 -72 25 C-72.817 23.899 -73.629 22.794 -74.438 21.688 C-74.89 21.073 -75.342 20.458 -75.809 19.824 C-78.91 15.075 -78.767 9.445 -78 4 C-75.18 -2.191 -70.039 -6.148 -64 -9 C-44.823 -16.065 -17.903 -8.173 0 0 Z " fill="#E8E8E8" transform="translate(344,521)"/>
<path d="M0 0 C0.99 0.33 1.98 0.66 3 1 C4.688 4.562 4.688 4.562 6 8 C5.553 8.461 5.105 8.923 4.645 9.398 C-3.251 17.917 -6.618 26.727 -9 38 C-11.97 38 -14.94 38 -18 38 C-16.483 23.96 -12.263 12.813 -3 2 C-2.01 1.34 -1.02 0.68 0 0 Z " fill="#969898" transform="translate(765,721)"/>
<path d="M0 0 C4.19 -0.419 6.498 -0.278 10.219 1.781 C12.367 3.682 12.947 4.717 13.48 7.568 C13.591 10.67 13.523 13.712 13.375 16.812 C13.348 17.887 13.321 18.961 13.293 20.068 C13.222 22.713 13.115 25.357 13 28 C9.37 28 5.74 28 2 28 C1.939 26.23 1.879 24.46 1.816 22.637 C1.732 20.32 1.647 18.004 1.562 15.688 C1.523 14.52 1.484 13.353 1.443 12.15 C1.401 11.032 1.36 9.914 1.316 8.762 C1.28 7.73 1.243 6.698 1.205 5.635 C1.098 2.893 1.098 2.893 0 0 Z " fill="#FEFEFE" transform="translate(266,391)"/>
<path d="M0 0 C2.791 1.356 3.866 2.554 6 5 C6.81 9.453 6.324 11.417 4.125 15.375 C2 18 2 18 0 19 C-3.911 19.369 -6.335 19.332 -9.875 17.562 C-12.486 14.414 -12.959 12.215 -13.211 8.191 C-12.89 4.853 -11.421 3.214 -9 1 C-5.851 -0.575 -3.48 -0.348 0 0 Z " fill="#070708" transform="translate(249,752)"/>
<path d="M0 0 C1.32 0 2.64 0 4 0 C0.982 22.583 -14.416 42.077 -31.926 55.84 C-56.627 73.196 -56.627 73.196 -66.359 71.617 C-66.901 71.414 -67.442 71.21 -68 71 C-66.984 70.648 -65.968 70.296 -64.922 69.934 C-50.148 64.693 -38.601 57.461 -27 47 C-26.321 46.404 -25.641 45.809 -24.941 45.195 C-12.734 33.862 -3.306 16.252 0 0 Z " fill="#E8E8E8" transform="translate(355,788)"/>
<path d="M0 0 C2.942 1.388 5.529 3.006 8.188 4.875 C16.508 10.431 24.079 12.724 34 14 C34 15.98 34 17.96 34 20 C21.379 20.856 10.256 16.14 0 9 C-2.34 6.906 -2.34 6.906 -4 5 C-4 4.34 -4 3.68 -4 3 C-2 1.375 -2 1.375 0 0 Z " fill="#969898" transform="translate(769,796)"/>
<path d="M0 0 C2.64 0 5.28 0 8 0 C8.22 1.199 8.22 1.199 8.445 2.422 C9.948 9.782 12.133 15.878 15.793 22.441 C17 25 17 25 17 29 C15.5 30.75 15.5 30.75 14 32 C8.518 30.173 6.536 23.921 4 19 C1.062 12.527 -0.537 7.117 0 0 Z " fill="#969898" transform="translate(748,765)"/>
<path d="M0 0 C0.66 0 1.32 0 2 0 C2.231 1.016 2.461 2.032 2.699 3.078 C8.789 29.113 22.766 52.551 45 68 C38.096 68 30.172 59.367 25.312 54.688 C12.594 41.372 -0.004 21.932 -1.188 3 C-1 1 -1 1 0 0 Z " fill="#E8E8E8" transform="translate(697,778)"/>
<path d="M0 0 C2.114 1.429 3.968 2.846 5.762 4.656 C6.092 3.996 6.422 3.336 6.762 2.656 C6.762 4.306 6.762 5.956 6.762 7.656 C2.802 8.316 -1.158 8.976 -5.238 9.656 C-5.238 8.666 -5.238 7.676 -5.238 6.656 C-6.636 6.474 -6.636 6.474 -8.062 6.289 C-16.472 5.184 -24.86 3.984 -33.238 2.656 C-24.122 -2.449 -9.806 -4.069 0 0 Z " fill="#E8E8E8" transform="translate(562.23828125,409.34375)"/>
<path d="M0 0 C3.96 0 7.92 0 12 0 C12.143 11.714 12.143 11.714 11 17 C7.37 17 3.74 17 0 17 C0 11.39 0 5.78 0 0 Z " fill="#F6ECE3" transform="translate(265,478)"/>
<path d="M0 0 C0.66 0 1.32 0 2 0 C2.124 0.969 2.248 1.939 2.375 2.938 C4.926 20.375 12.296 34.932 26.656 45.635 C44.637 58.419 63.718 59.525 85 57 C76.393 62.738 63.867 61.922 54.074 60.383 C36.577 56.794 21.805 47.489 11.125 33.125 C4.497 22.9 0 12.293 0 0 Z " fill="#B0B2B3" transform="translate(188,764)"/>
<path d="M0 0 C12.328 -1.775 12.328 -1.775 16.676 1.113 C20.874 5.051 25.125 10.184 26 16 C22.87 16.511 20.118 16.65 17 16 C14.903 14.244 13.417 12.348 11.766 10.172 C9.427 7.296 6.714 5.347 3.699 3.227 C2 2 2 2 0 0 Z " fill="#8C8E8E" transform="translate(278,718)"/>
<path d="M0 0 C2.5 0.5 2.5 0.5 4.875 2.062 C6.5 4.5 6.5 4.5 6.375 8.125 C5.5 11.5 5.5 11.5 3.5 13.5 C-2.552 14.05 -2.552 14.05 -5.438 12.375 C-7.03 9.565 -6.953 7.672 -6.5 4.5 C-4.517 1.709 -3.37 0.674 0 0 Z " fill="#070708" transform="translate(373.5,227.5)"/>
<path d="M0 0 C0.817 0.396 1.635 0.791 2.477 1.199 C3.745 1.835 3.745 1.835 5.039 2.484 C5.877 2.893 6.715 3.302 7.578 3.723 C9.947 4.881 12.307 6.054 14.664 7.234 C15.304 7.553 15.943 7.872 16.603 8.201 C17.957 8.877 19.311 9.556 20.664 10.234 C20.334 11.224 20.004 12.214 19.664 13.234 C17.922 14.073 17.922 14.073 15.664 14.234 C13.222 13.294 13.222 13.294 10.531 11.812 C9.075 11.016 9.075 11.016 7.59 10.203 C6.583 9.636 5.576 9.069 4.539 8.484 C3.525 7.933 2.51 7.381 1.465 6.812 C-6.064 2.642 -6.064 2.642 -8.336 -0.766 C-4.884 -1.984 -3.248 -1.601 0 0 Z " fill="#6D6F6F" transform="translate(538.3359375,705.765625)"/>
<path d="M0 0 C0.495 1.485 0.495 1.485 1 3 C-12.278 17.236 -28.367 28.014 -47 34 C-49.236 33.576 -49.236 33.576 -51 33 C-49.984 32.648 -48.968 32.296 -47.922 31.934 C-30.636 25.802 -16.966 16.689 -4.367 3.34 C-3 2 -3 2 0 0 Z " fill="#E8E8E8" transform="translate(338,826)"/>
<path d="M0 0 C1.32 0.33 2.64 0.66 4 1 C-3.615 15.882 -15.704 29.203 -30 38 C-30.66 37.67 -31.32 37.34 -32 37 C-31.299 36.443 -30.597 35.886 -29.875 35.312 C-17.501 25.359 -6.825 14.533 0 0 Z " fill="#DCDCDD" transform="translate(895,810)"/>
<path d="M0 0 C17.445 0.734 35.107 2.428 52 7 C52 7.33 52 7.66 52 8 C50.166 7.856 48.333 7.71 46.5 7.562 C45.479 7.481 44.458 7.4 43.406 7.316 C41.037 7.096 38.672 6.82 36.314 6.5 C32.062 5.964 27.845 5.782 23.562 5.684 C22.797 5.663 22.031 5.642 21.243 5.621 C18.829 5.556 16.414 5.497 14 5.438 C12.35 5.394 10.701 5.351 9.051 5.307 C5.034 5.2 1.017 5.099 -3 5 C-3 4.67 -3 4.34 -3 4 C2.94 4 8.88 4 15 4 C15 3.34 15 2.68 15 2 C13.237 2.031 13.237 2.031 11.438 2.062 C7.526 2.069 3.855 1.643 0 1 C0 0.67 0 0.34 0 0 Z " fill="#969898" transform="translate(235,563)"/>
<path d="M0 0 C6.852 1.029 12.681 7.34 17.051 12.352 C19.654 15.968 20.915 18.416 21.562 22.875 C20.959 26.227 20.427 26.838 18 29 C17.986 28.443 17.972 27.886 17.957 27.312 C17.51 20.163 15.431 15.07 10.031 10.238 C6.832 7.773 3.648 5.739 0 4 C0.66 3.01 1.32 2.02 2 1 C1.34 0.67 0.68 0.34 0 0 Z " fill="#E8E8E8" transform="translate(577,423)"/>
<path d="M0 0 C0.99 0.103 1.98 0.206 3 0.312 C5.155 3.545 5.469 4.564 5 8.312 C3.875 10.188 3.875 10.188 2 11.312 C-3.435 10.878 -3.435 10.878 -5 9.312 C-5.188 5.875 -5.188 5.875 -5 2.312 C-3 0.312 -3 0.312 0 0 Z " fill="#131313" transform="translate(807,756.6875)"/>
<path d="M0 0 C-0.453 4.62 -1.993 6.366 -5.5 9.312 C-6.315 10.01 -7.129 10.707 -7.969 11.426 C-10 13 -10 13 -11 13 C-11 9.04 -11 5.08 -11 1 C-3.375 0 -3.375 0 0 0 Z " fill="#FEFEFE" transform="translate(275,502)"/>
<path d="M0 0 C3.318 -0.387 4.63 -0.277 7.352 1.758 C16.643 11.433 16.643 11.433 17.312 18.125 C17.009 20.921 16.462 22.625 15 25 C14.34 25 13.68 25 13 25 C13.081 24.31 13.162 23.621 13.246 22.91 C13.626 17.263 13.359 13.657 9.875 9.062 C6.895 5.67 3.88 3.271 0 1 C0 0.67 0 0.34 0 0 Z " fill="#F6ECE3" transform="translate(575,430)"/>
<path d="M0 0 C0.33 0 0.66 0 1 0 C1 1.98 1 3.96 1 6 C1.99 6 2.98 6 4 6 C5.522 9.043 5.239 11.654 5 15 C1.15 17.567 -0.586 16.833 -5 16 C-5 15.01 -5 14.02 -5 13 C-2.69 13 -0.38 13 2 13 C1.67 12.154 1.34 11.309 1 10.438 C-0.061 6.79 -0.151 3.777 0 0 Z " fill="#242120" transform="translate(451,267)"/>
<path d="M0 0 C2.531 2.531 3.738 5.435 5.25 8.625 C7.966 14.23 10.954 19.227 15 24 C14.67 24.66 14.34 25.32 14 26 C9.621 21.47 5.889 16.621 2.5 11.312 C1.809 10.236 1.118 9.16 0.406 8.051 C-1.131 4.715 -1.166 3.416 0 0 Z " fill="#E8E8E8" transform="translate(154,800)"/>
<path d="M0 0 C3.108 0.317 4.596 0.568 6.766 2.891 C7.255 3.669 7.745 4.448 8.25 5.25 C8.75 6.018 9.25 6.787 9.766 7.578 C11.039 10.077 11.589 12.237 12 15 C10.23 14.871 10.23 14.871 8 14 C6.113 11.348 6.113 11.348 4.312 8.062 C3.711 6.981 3.109 5.899 2.488 4.785 C1.641 3.2 0.804 1.608 0 0 Z " fill="#E8E8E8" transform="translate(312,720)"/>
<path d="M0 0 C3.617 0.557 4.941 1.729 7.188 4.562 C10.459 8.49 14.015 11.812 17.887 15.141 C20.016 17.014 22.015 18.975 24 21 C14.79 17.847 6.19 9.396 0 2 C0 1.34 0 0.68 0 0 Z " fill="#C7C7C7" transform="translate(718,826)"/>
<path d="M0 0 C3.357 0.63 6.595 1.419 9.863 2.41 C11.193 2.811 11.193 2.811 12.549 3.221 C13.917 3.637 13.917 3.637 15.312 4.062 C16.244 4.344 17.175 4.626 18.135 4.916 C20.424 5.609 22.712 6.303 25 7 C24.01 7.495 24.01 7.495 23 8 C23 8.66 23 9.32 23 10 C5.392 4.817 5.392 4.817 0 2 C0 1.34 0 0.68 0 0 Z " fill="#DCDCDD" transform="translate(396,318)"/>
<path d="M0 0 C1.65 0 3.3 0 5 0 C3.68 0.33 2.36 0.66 1 1 C2.544 9.826 4.116 18.491 7 27 C1.731 22.408 0.339 16.695 -1 10 C-1.031 6.566 -0.698 3.36 0 0 Z " fill="#C7C7C7" transform="translate(351,501)"/>
<path d="M0 0 C0.66 0.33 1.32 0.66 2 1 C1.959 2.196 1.918 3.392 1.875 4.625 C1.861 8.423 2.58 11.45 4 15 C-0.139 11.7 -3.587 8.827 -6 4 C-4.35 4 -2.7 4 -1 4 C-0.67 2.68 -0.34 1.36 0 0 Z " fill="#E8E8E8" transform="translate(427,344)"/>
<path d="M0 0 C0.66 0 1.32 0 2 0 C2 1.32 2 2.64 2 4 C-1.407 6.097 -4.032 6.413 -8 6 C-10.375 4.625 -10.375 4.625 -12 3 C-12 2.34 -12 1.68 -12 1 C-11.218 1.012 -10.435 1.023 -9.629 1.035 C-8.617 1.044 -7.605 1.053 -6.562 1.062 C-5.048 1.08 -5.048 1.08 -3.504 1.098 C-1.06 1.286 -1.06 1.286 0 0 Z " fill="#242120" transform="translate(442,300)"/>
<path d="M0 0 C0.66 0 1.32 0 2 0 C0.615 4.156 -2.183 5.044 -5.875 6.938 C-6.55 7.289 -7.224 7.64 -7.919 8.002 C-22.494 15.447 -22.494 15.447 -27.301 14.59 C-27.862 14.395 -28.422 14.201 -29 14 C-27.984 13.648 -26.968 13.296 -25.922 12.934 C-11.956 8.25 -11.956 8.25 0 0 Z " fill="#B0B2B3" transform="translate(316,845)"/>
<path d="M0 0 C0.99 0 1.98 0 3 0 C7.592 9.41 7.592 9.41 7 14 C6.01 13.67 5.02 13.34 4 13 C2.832 10.566 2.832 10.566 1.812 7.562 C1.468 6.574 1.124 5.585 0.77 4.566 C0 2 0 2 0 0 Z " fill="#E8E8E8" transform="translate(350,723)"/>
<path d="M0 0 C4.909 4.751 4.909 4.751 5.25 9.438 C5 13 5 13 3.484 14.723 C2.995 15.144 2.505 15.566 2 16 C1.927 15.13 1.927 15.13 1.852 14.242 C1.404 9.561 0.702 5.425 -1 1 C-0.67 0.67 -0.34 0.34 0 0 Z " fill="#DCDCDD" transform="translate(593,436)"/>
<path d="M0 0 C3 1 3 1 4.188 2.688 C5.193 5.55 5.137 7.988 5 11 C4.01 11.33 3.02 11.66 2 12 C1.732 10.907 1.464 9.814 1.188 8.688 C0.123 5.383 -0.347 4.05 -3 2 C-2.01 2 -1.02 2 0 2 C0 1.34 0 0.68 0 0 Z " fill="#E8E8E8" transform="translate(581,441)"/>
<path d="M0 0 C0.99 0.33 1.98 0.66 3 1 C1.296 2.588 -0.413 4.171 -2.125 5.75 C-3.076 6.632 -4.028 7.513 -5.008 8.422 C-7.91 10.923 -10.775 12.952 -14 15 C-14.66 14.67 -15.32 14.34 -16 14 C-15.264 13.408 -14.528 12.817 -13.77 12.207 C-12.794 11.417 -11.818 10.627 -10.812 9.812 C-9.368 8.647 -9.368 8.647 -7.895 7.457 C-5.096 5.082 -2.554 2.629 0 0 Z " fill="#C7C7C7" transform="translate(879,833)"/>
<path d="M0 0 C3.3 0 6.6 0 10 0 C9.25 2.438 9.25 2.438 8 5 C5.875 5.812 5.875 5.812 4 6 C2.68 4.02 1.36 2.04 0 0 Z " fill="#969898" transform="translate(292,789)"/>
<path d="M0 0 C2.125 0.375 2.125 0.375 4 1 C4.625 2.875 4.625 2.875 5 5 C4.34 5.66 3.68 6.32 3 7 C0.875 6.625 0.875 6.625 -1 6 C-1.625 4.125 -1.625 4.125 -2 2 C-1.34 1.34 -0.68 0.68 0 0 Z " fill="#DCDCDD" transform="translate(244,758)"/>
<path d="M0 0 C0.66 0 1.32 0 2 0 C2.027 1.437 2.046 2.875 2.062 4.312 C2.074 5.113 2.086 5.914 2.098 6.738 C2 9 2 9 1 12 C3.64 12.33 6.28 12.66 9 13 C9 13.33 9 13.66 9 14 C5.7 14 2.4 14 -1 14 C-0.67 9.38 -0.34 4.76 0 0 Z " fill="#E8E8E8" transform="translate(546,430)"/>
<path d="M0 0 C2.312 1.812 2.312 1.812 3.125 4 C3.187 4.598 3.249 5.196 3.312 5.812 C-1.52 5.398 -3.514 3.348 -6.688 -0.188 C-3.829 -1.352 -2.887 -1.276 0 0 Z " fill="#787A79" transform="translate(536.6875,705.1875)"/>
<path d="M0 0 C5.61 0.66 11.22 1.32 17 2 C17 2.33 17 2.66 17 3 C15.35 3 13.7 3 12 3 C12 3.66 12 4.32 12 5 C10.185 4.551 8.373 4.091 6.562 3.625 C5.553 3.37 4.544 3.115 3.504 2.852 C1 2 1 2 0 0 Z " fill="#B0B2B3" transform="translate(298,573)"/>
<path d="M0 0 C1.5 1.188 1.5 1.188 3 3 C3.188 5.688 3.188 5.688 3 8 C1.35 8.33 -0.3 8.66 -2 9 C-1.125 2.25 -1.125 2.25 0 0 Z " fill="#F6ECE3" transform="translate(577,445)"/>
<path d="M0 0 C0.66 0 1.32 0 2 0 C1.67 2.97 1.34 5.94 1 9 C2.98 9 4.96 9 7 9 C7 9.33 7 9.66 7 10 C4.03 10 1.06 10 -2 10 C-1.125 1.125 -1.125 1.125 0 0 Z " fill="#8C8E8E" transform="translate(749,749)"/>
<path d="M0 0 C0.66 0 1.32 0 2 0 C4.432 3.367 5 4.734 5 9 C2 8 2 8 0.25 5.625 C-1 3 -1 3 0 0 Z " fill="#E8E8E8" transform="translate(370,717)"/>
<path d="M0 0 C0.33 0 0.66 0 1 0 C1.133 0.808 1.266 1.616 1.402 2.449 C1.579 3.518 1.756 4.586 1.938 5.688 C2.112 6.743 2.286 7.799 2.465 8.887 C2.932 11.602 3.444 14.301 4 17 C1.569 15.34 0.387 14.531 -1 12 C-1.148 7.924 -0.648 4.02 0 0 Z " fill="#C7C7C7" transform="translate(269,529)"/>
<path d="M0 0 C1.32 0.33 2.64 0.66 4 1 C2.68 3.31 1.36 5.62 0 8 C-0.99 8 -1.98 8 -3 8 C-1.125 2.25 -1.125 2.25 0 0 Z " fill="#E8E8E8" transform="translate(895,810)"/>
<path d="M0 0 C0.66 0 1.32 0 2 0 C2.33 2.31 2.66 4.62 3 7 C2.34 7 1.68 7 1 7 C0.67 7.66 0.34 8.32 0 9 C-0.879 2.848 -0.879 2.848 -1 1 C-0.67 0.67 -0.34 0.34 0 0 Z " fill="#D1D2D3" transform="translate(697,778)"/>
<path d="M0 0 C1.033 2.788 1.045 3.868 0.062 6.75 C-0.288 7.492 -0.639 8.235 -1 9 C-1.99 9 -2.98 9 -4 9 C-3.385 3.462 -3.385 3.462 -1.438 1.125 C-0.963 0.754 -0.489 0.383 0 0 Z " fill="#F6ECE3" transform="translate(153,717)"/>
<path d="M0 0 C0 0.99 0 1.98 0 3 C-3.96 3 -7.92 3 -12 3 C-8.526 0.684 -4.046 -2.023 0 0 Z " fill="#DCDCDD" transform="translate(843,867)"/>
<path d="M0 0 C8 9.714 8 9.714 8 14 C0.148 5.923 0.148 5.923 0 0 Z " fill="#C7C7C7" transform="translate(160,812)"/>
<path d="M0 0 C3.875 1.75 3.875 1.75 5 4 C5.04 6.333 5.043 8.667 5 11 C4.01 11.495 4.01 11.495 3 12 C2.814 10.144 2.814 10.144 2.625 8.25 C2.243 5.124 1.695 2.711 0 0 Z " fill="#C7C7C7" transform="translate(604,437)"/>
<path d="M0 0 C0.66 0 1.32 0 2 0 C2.179 3.947 2.094 6.598 0 10 C-0.66 10 -1.32 10 -2 10 C-1.86 8.52 -1.712 7.041 -1.562 5.562 C-1.481 4.739 -1.4 3.915 -1.316 3.066 C-1 1 -1 1 0 0 Z " fill="#B0B2B3" transform="translate(590,445)"/>
<path d="M0 0 C1.875 0.625 1.875 0.625 4 2 C5.25 5.125 5.25 5.125 6 8 C5.01 8.495 5.01 8.495 4 9 C0 3.375 0 3.375 0 0 Z " fill="#DCDCDD" transform="translate(585,437)"/>
<path d="M0 0 C0.99 0.33 1.98 0.66 3 1 C3 3.31 3 5.62 3 8 C2.01 8.33 1.02 8.66 0 9 C0 6.03 0 3.06 0 0 Z " fill="#C7C7C7" transform="translate(482,691)"/>
<path d="M0 0 C0.33 0.99 0.66 1.98 1 3 C-1.052 5.248 -2.007 6.002 -5 7 C-3.75 3.347 -3.329 2.219 0 0 Z " fill="#F6ECE3" transform="translate(349,810)"/>
<path d="M0 0 C0 4.29 0 8.58 0 13 C-0.33 13 -0.66 13 -1 13 C-1 10.03 -1 7.06 -1 4 C-1.99 3.67 -2.98 3.34 -4 3 C-1.125 0 -1.125 0 0 0 Z " fill="#D1D2D3" transform="translate(477,276)"/>
<path d="M0 0 C0.33 0 0.66 0 1 0 C1.33 3.63 1.66 7.26 2 11 C0.68 11.33 -0.64 11.66 -2 12 C-1.34 8.04 -0.68 4.08 0 0 Z " fill="#E2D9CD" transform="translate(444,268)"/>
<path d="M0 0 C2.64 0.66 5.28 1.32 8 2 C6.75 3.562 6.75 3.562 5 5 C2.812 4.688 2.812 4.688 1 4 C0.67 2.68 0.34 1.36 0 0 Z " fill="#F6ECE3" transform="translate(454,271)"/>
<path d="M0 0 C2.468 1.152 4.048 2.048 6 4 C4.35 4 2.7 4 1 4 C0.67 4.99 0.34 5.98 0 7 C0 4.69 0 2.38 0 0 Z " fill="#E8E8E8" transform="translate(403,277)"/>
<path d="M0 0 C2.31 0 4.62 0 7 0 C5.515 2.475 5.515 2.475 4 5 C2.68 3.35 1.36 1.7 0 0 Z " fill="#DCDCDD" transform="translate(445,240)"/>
<path d="M0 0 C0.66 0.33 1.32 0.66 2 1 C1.67 1.99 1.34 2.98 1 4 C-1.562 5.188 -1.562 5.188 -4 6 C-2.848 3.532 -1.952 1.952 0 0 Z " fill="#DCDCDD" transform="translate(322,840)"/>
<path d="M0 0 C1.65 1.65 3.3 3.3 5 5 C4.01 5.33 3.02 5.66 2 6 C1.01 5.01 0.02 4.02 -1 3 C-0.67 2.01 -0.34 1.02 0 0 Z " fill="#F6ECE3" transform="translate(715,820)"/>
<path d="M0 0 C-0.998 2.993 -1.752 3.948 -4 6 C-4.99 5.67 -5.98 5.34 -7 5 C-7 4.34 -7 3.68 -7 3 C-2.615 0 -2.615 0 0 0 Z " fill="#969898" transform="translate(766,791)"/>
<path d="M0 0 C0.33 0 0.66 0 1 0 C1 2.64 1 5.28 1 8 C0.34 7.34 -0.32 6.68 -1 6 C-1.99 6.495 -1.99 6.495 -3 7 C-1.125 1.125 -1.125 1.125 0 0 Z " fill="#D1D2D3" transform="translate(515,589)"/>
<path d="M0 0 C1.938 0.812 1.938 0.812 4 2 C4.33 2.99 4.66 3.98 5 5 C4.34 5 3.68 5 3 5 C2.67 5.99 2.34 6.98 2 8 C0.743 5.094 0 3.204 0 0 Z " fill="#302F2D" transform="translate(578,444)"/>
<path d="M0 0 C3.375 0.547 5.082 1.055 8 3 C5.394 3.931 4.358 4.149 1.75 3.062 C1.173 2.712 0.595 2.361 0 2 C0 1.34 0 0.68 0 0 Z " fill="#C7C7C7" transform="translate(396,318)"/>
</svg>