<svg xmlns="http://www.w3.org/2000/svg" viewBox="0 0 24 24" fill="none" stroke="#2c5282" stroke-width="2" stroke-linecap="round" stroke-linejoin="round">
  <rect x="2" y="2" width="20" height="4" rx="2" ry="2"></rect>
  <rect x="2" y="8" width="20" height="4" rx="2" ry="2"></rect>
  <rect x="2" y="14" width="20" height="4" rx="2" ry="2"></rect>
  <rect x="2" y="20" width="20" height="2" rx="1" ry="1"></rect>
  <line x1="6" y1="4" x2="6.01" y2="4"></line>
  <line x1="6" y1="10" x2="6.01" y2="10"></line>
  <line x1="6" y1="16" x2="6.01" y2="16"></line>
  <line x1="9" y1="4" x2="9.01" y2="4"></line>
  <line x1="9" y1="10" x2="9.01" y2="10"></line>
  <line x1="9" y1="16" x2="9.01" y2="16"></line>
  <line x1="12" y1="4" x2="12.01" y2="4"></line>
  <line x1="12" y1="10" x2="12.01" y2="10"></line>
  <line x1="12" y1="16" x2="12.01" y2="16"></line>
  <line x1="6" y1="21" x2="6.01" y2="21"></line>
</svg> 